<svg xmlns="http://www.w3.org/2000/svg" viewBox="0 0 165.66 183.04"><defs><style>.cls-1,.cls-2{fill:#161410;}.cls-2{fill-rule:evenodd;}</style></defs><g id="Calque_2" data-name="Calque 2"><g id="Calque_11" data-name="Calque 11"><path class="cls-1" d="M3.88,140.28c3.31,0,5.38.42,7.07,2a6.57,6.57,0,0,1,2,5.07,5.61,5.61,0,0,1-.77,3,4.3,4.3,0,0,1-1.92,1.77A7,7,0,0,1,13.6,154a6.69,6.69,0,0,1,1.69,4.81,6.26,6.26,0,0,1-1.69,4.61c-2,2.15-5.22,2.49-7.18,2.49H0V140.28Zm0,11H5.11a4.48,4.48,0,0,0,3.19-1,3.89,3.89,0,0,0,1-2.92,3.17,3.17,0,0,0-.92-2.45,4.2,4.2,0,0,0-3.12-1H3.92Zm0,10.92H6.3a6.8,6.8,0,0,0,3.88-1,3.68,3.68,0,0,0,1.27-2.85,3.84,3.84,0,0,0-1-2.69,5.64,5.64,0,0,0-4-1.15H3.92Z"/><path class="cls-1" d="M40.75,159.72H29.8L27,165.9H22.77l12.75-27.12L47.66,165.9H43.44ZM39.17,156l-3.8-8.68-4,8.68Z"/><path class="cls-1" d="M69,152.57H79.61v.19c0,4.38-1.31,8-3.8,10.38a12,12,0,0,1-8.72,3.26,11.19,11.19,0,0,1-8.73-3.49,13.43,13.43,0,0,1,9.57-23.09,13.92,13.92,0,0,1,6.69,1.61,11.69,11.69,0,0,1,4.15,3.84l-3.12,2.19a10.51,10.51,0,0,0-3.15-2.92A8.67,8.67,0,0,0,68,143.43a9.22,9.22,0,0,0-6.76,2.65,10.64,10.64,0,0,0-.08,14.14,8.34,8.34,0,0,0,6.42,2.57,7.71,7.71,0,0,0,5.72-2.26,6.89,6.89,0,0,0,2.15-4.35H69Z"/><path class="cls-1" d="M94.58,140.28c3.11,0,5.11.38,6.76,1.5a7.14,7.14,0,0,1,3,6A7,7,0,0,1,98.69,155l8,11H102l-7.34-10.49h-.69V165.9H90V140.28ZM93.92,152h1.23c1.08,0,5.46-.11,5.46-4.18,0-3.62-3.42-4-5.34-4H93.92Z"/><path class="cls-1" d="M131.06,159.72h-11l-2.81,6.18h-4.22l12.75-27.12L138,165.9h-4.22ZM129.48,156l-3.8-8.68-4,8.68Z"/><path class="cls-1" d="M150.6,140.28v15.44a8.92,8.92,0,0,0,.8,4.42,5.61,5.61,0,0,0,9.53,0,8.92,8.92,0,0,0,.81-4.42V140.28h3.92v16.48a9.51,9.51,0,0,1-2.39,6.65,9.94,9.94,0,0,1-14.21,0,9.49,9.49,0,0,1-2.38-6.65V140.28Z"/><path class="cls-2" d="M23.2,101.6V42.11c17,0,29.11,4.63,36,14.62s6.52,20.54,0,30.8C52.41,98.29,37,101.65,23.2,101.6Zm2.49,7.56c25.81,0,41.69-12.22,45.45-30.43,4-19.12-7.48-38-32.63-42.35A17.25,17.25,0,0,0,49.2,14.49C45.75,4.6,36,.86,25.69,1.05H15.85V109.16ZM23.2,32.05V7.15c14.14,0,20,5.13,20,13.23S34.63,32.05,23.2,32.05Z"/><path class="cls-2" d="M91.65,26.35a51.14,51.14,0,0,0,0,57.51c11.79,17.63,29.34,27.77,58.16,25.9V32.65h-10V39.9h3.42v62.94c-15.76.47-27.52-3.68-37-12.8V21.29c12.47-12.61,25.88-16.16,43.6-14.14V.44c-24.43-2.85-46.37,8.28-58.16,25.91Zm8.49.56V84.36C87.88,68.21,85.93,45,100.14,26.91Z"/><path class="cls-1" d="M15.85,118.3H19a8.45,8.45,0,0,1,5.76,1.83,7.59,7.59,0,0,1,2.67,6,7.4,7.4,0,0,1-2.74,6c-1.43,1.22-2.92,1.8-5.71,1.8H15.85Zm1.73,14H19.1a6.64,6.64,0,0,0,4.47-1.41,5.94,5.94,0,0,0,2.11-4.75c0-3.75-2.62-6.18-6.58-6.18H17.58Z"/><path class="cls-1" d="M35.47,126.12a8.13,8.13,0,1,1,8.13,8.08A8,8,0,0,1,35.47,126.12Zm1.78,0a6.35,6.35,0,1,0,6.35-6.44A6.37,6.37,0,0,0,37.25,126.12Z"/><path class="cls-1" d="M60,133.91l2.6-16.48,6,13.18,6.11-13.2,2.44,16.5H75.39l-1.47-10.86L68.6,134.57l-5.24-11.52-1.55,10.86Z"/><path class="cls-1" d="M95.06,129.51H88.41l-1.87,4.4H84.62l7.18-16.36,7,16.36H96.88Zm-.68-1.64-2.62-6.25-2.67,6.25Z"/><path class="cls-1" d="M108.41,118.3v15.61h-1.74V118.3Z"/><path class="cls-1" d="M118.11,133.91V117.65l12.17,12.75V118.3H132v16.32l-12.17-12.76v12Z"/><path class="cls-1" d="M149.81,119.94h-6.37v4.63h6.18v1.64h-6.18v6.07h6.37v1.63h-8.1V118.3h8.1Z"/><rect class="cls-1" x="43.94" y="181.96" width="77.79" height="1.07"/></g></g></svg>