<svg xmlns="http://www.w3.org/2000/svg" viewBox="0 0 504.59 183.37"><defs><style>.cls-1{fill:#20201e;}</style></defs><g id="Calque_2" data-name="Calque 2"><g id="Calque_11" data-name="Calque 11"><path class="cls-1" d="M20.33,112.48a24.91,24.91,0,0,0,5,.5c6.48,0,13.42-2.51,21.39-7.71a13.34,13.34,0,0,0,8.1,4.85,16.35,16.35,0,0,0,3,.28c6.18,0,12.16-3.48,16.31-9.2.2,3.77,1.2,6.43,3.23,7.79a8.15,8.15,0,0,0,4.52,1.26c3.93,0,8.67-2.28,12.22-7.31a2.22,2.22,0,0,0-3.63-2.56c-2.66,3.78-7.89,6.75-10.65,4.91-.4-.27-2.33-2.17-.59-13.26A199.32,199.32,0,0,1,83.8,72.12c.47-1.73.84-3.1,1-4a2.22,2.22,0,0,0-4.33-1c-.19.82-.55,2.15-1,3.84-.25.91-.49,1.8-.72,2.69A15.65,15.65,0,0,0,68.67,64.3a15.3,15.3,0,0,0-12.22,1.26c-5.72,3.08-10.21,9.38-12.3,17.28-1.91,7.18-1.79,13.66.28,18.6-9.07,6-16.48,8.08-23.2,6.69a10.78,10.78,0,0,1-8.58-7.36c-2.32-6.43-1.1-16.7,3.42-28.93A117.89,117.89,0,0,1,33.44,40.66,2.22,2.22,0,0,0,30,37.88,122.21,122.21,0,0,0,11.91,70.3c-3.46,9.34-6.86,22.48-3.44,32A15.31,15.31,0,0,0,20.33,112.48ZM48.44,84c1.78-6.72,5.47-12,10.12-14.52A11.55,11.55,0,0,1,64.07,68a10.07,10.07,0,0,1,3.2.52c10.2,3.4,9.38,14.17,6.9,22.6-2.88,9.8-10.86,16.1-18.57,14.64a9,9,0,0,1-6.15-4.21C46.91,97.51,46.54,91.11,48.44,84Z"/><path class="cls-1" d="M130.92,65a2.22,2.22,0,0,0,.6-4.4c-8.06-1.1-11.26-11.29-10.25-20.79,2.25-21.23,18.55-29.58,33.7-28.43,13,1,20.64,8.66,21,21.05.52,18.21-13,33.66-25.35,35.31a2.22,2.22,0,0,0,.38,4.42c4.65-.2,13.14.17,17.82,4.82,2.37,2.36,3.46,5.52,3.31,9.67-.24,6.66-4.67,11.32-8.35,14.06-6.9,5.14-16.92,7.77-23.31,6.11a40.51,40.51,0,0,0-11-1.37c3.77-5.64,8.29-16.6,12.65-37.66,5.26-25.47,10-38.28,14.95-40.31l.28-.12a7.42,7.42,0,0,1,4.35-.76,2.22,2.22,0,1,0,.66-4.39,11.72,11.72,0,0,0-6.72,1.05l-.26.11c-5.66,2.33-10.82,10.62-17.61,43.52-6.39,30.9-12.72,37.87-15,39.42a14.3,14.3,0,0,0-1.89.6,2.22,2.22,0,0,0,.44,4.23,4.9,4.9,0,0,0,3.31-.7,32.41,32.41,0,0,1,14.78.68,21.7,21.7,0,0,0,5.36.63,38.4,38.4,0,0,0,21.72-7.48c6.4-4.76,9.9-10.8,10.14-17.47.19-5.37-1.36-9.73-4.62-13a21.22,21.22,0,0,0-10.6-5.29,36.57,36.57,0,0,0,11.21-10.82A43.8,43.8,0,0,0,180.4,32.3C180,17.58,170.61,8.1,155.31,6.94c-23.88-1.82-36.67,15.53-38.46,32.4C115.39,53.11,121.18,63.66,130.92,65Z"/><path class="cls-1" d="M215.76,132a2.24,2.24,0,0,0,2.3-2.13,2.22,2.22,0,0,0-2.13-2.31c-57-2.25-159.06,5.56-214.14,16.39a2.22,2.22,0,0,0,.43,4.4,2.09,2.09,0,0,0,.43,0C57.46,137.52,159,129.75,215.76,132Z"/><path class="cls-1" d="M481.6,23.93A22.48,22.48,0,0,0,475.92,0a22.48,22.48,0,0,0-8.12,33.27h0s0,0,.05.08c.34.46.69.9,1.06,1.33l.41.45c.29.33.59.64.9.94a22.48,22.48,0,0,0,34.37-3.37A22.52,22.52,0,0,0,481.6,23.93Z"/><path class="cls-1" d="M471.67,92.21c-8.31,8.25-16.16,11.24-22.11,8.43a12.63,12.63,0,0,1-4.77-4.12c.33-.26.64-.49.92-.68,5.42-3.78,21.28-18.14,21.58-28.5A8.43,8.43,0,0,0,464,60.21a12.23,12.23,0,0,0-12.85-1.68c-7.25,3.11-13.6,12.64-14.47,21.7A29.79,29.79,0,0,0,439,95.42c-4.87,3.82-11.54,8.52-16.92,5.76-.85-.44-2.14-2.52-1.17-11.56.83-7.6,3-18.16,5.72-31.54.19-.9.37-1.82.56-2.76q3,.28,6,.29a50.66,50.66,0,0,0,24.7-5.92,2.22,2.22,0,0,0-2.17-3.88c-7.63,4.27-17.3,6-27.62,5.13,1.1-5.46,2.28-11.33,3.46-17.54a2.22,2.22,0,1,0-4.36-.83c-1.21,6.32-2.4,12.3-3.53,17.85a69.48,69.48,0,0,1-8-1.73c-4.1-1.14-8.25-2.23-12.39-3.11q1.13-5.82,2.34-12.18a2.22,2.22,0,1,0-4.36-.83Q400,38.93,398.9,44.74c-11.57-2-22.84-1.81-32.43,4.21a2.22,2.22,0,1,0,2.36,3.76c8.48-5.32,18.5-5.5,29.23-3.64-3.6,18.67-6.14,32.3-6.52,41.44-3,6.59-13.74,12.08-23.68,12.08h-.13c-3,0-8-.61-10.94-3.93,4.93-3.78,15.82-12.52,19.72-18.72,3.19-5.07,4.27-9.38,3.22-12.8a8.91,8.91,0,0,0-5.24-5.51c-5.39-2.35-12.39-.42-17.86,4.94-6.33,6.21-11.11,17.63-5.59,31.1-1.38,1.76-5.08,5.49-8.7,5.11a4.08,4.08,0,0,1-2.58-1c.57-4.61,1-9.07,1.26-13.17,0,0,0-.06,0-.09.39-5.52.58-10.39.72-14.12.14-3.41.25-6.36.43-7.18a2.22,2.22,0,0,0-4.34-1,6.41,6.41,0,0,0-.12.76,17.75,17.75,0,0,0-9-5.67c-10-2.58-20.87,5.67-24.14,18.4-1.95,7.59-.77,15.09,2.63,20.44-1.58,1.6-4.71,4.26-8.09,4.26-2,0-2.85-.73-3.29-1.28-3-3.84-.18-16,2.11-25.8.8-3.42,1.63-7,2.25-10.22a2.22,2.22,0,0,0-4.36-.83c-.38,2-.84,4-1.32,6.15-2.56-4.93-6.62-8.68-11.11-9.83-5-1.28-10.25,0-14.86,3.61a27.42,27.42,0,0,0-9.28,14.79,29,29,0,0,0-.64,11.52c-6.31,9.38-16.26,13.51-20.9,12.75s-7.82-2.79-9.89-6.08c-3.1-4.92-3.4-12.79-.83-21.6,2.31-7.91,6.5-10.91,9.6-12a10.28,10.28,0,0,1,8.85.63,7.69,7.69,0,0,1,3.33,5.3,9.8,9.8,0,0,1-2,7.45,2.22,2.22,0,0,0,3.48,2.76,14.28,14.28,0,0,0,2.87-10.9,12.13,12.13,0,0,0-5.24-8.3c-3.39-2.27-8.43-2.71-12.84-1.12-4.06,1.48-9.51,5.27-12.34,15A48.24,48.24,0,0,0,221,85.55a34,34,0,0,1-5,.3A26.19,26.19,0,0,0,214.19,73c-2.29-5.38-6.3-9-11.27-10.32-10-2.58-20.87,5.67-24.14,18.4a27.33,27.33,0,0,0,1,17.43c2.3,5.38,6.3,9,11.28,10.32a14.92,14.92,0,0,0,3.74.47c8.86,0,17.53-7.72,20.4-18.87,0,0,0-.08,0-.13.44,0,.87,0,1.32,0a39.78,39.78,0,0,0,4.34-.26,23.16,23.16,0,0,0,3.23,11.57c2.78,4.41,7.13,7.13,12.93,8.09a11.65,11.65,0,0,0,1.91.15c6.14,0,14.83-4.16,21.19-11.83.06.15.11.31.17.46,2.3,5.38,6.3,9,11.28,10.32a14.57,14.57,0,0,0,3.63.46c5.64,0,11.12-3.26,15.1-8.67a11.11,11.11,0,0,0,2.07,5.35,8.17,8.17,0,0,0,6.77,3h0c4.72,0,8.73-3.12,10.91-5.24a15.43,15.43,0,0,0,6.84,3.85,15,15,0,0,0,3.77.48,17.77,17.77,0,0,0,11.05-4.16,24,24,0,0,0,2.88-2.74c.05.26.12.52.19.78a8.21,8.21,0,0,0,.36.91c-1.4,10.74-3.76,22.1-7.87,31.38l-4.27-.89c-25.35-5.3-67.77-14.17-86.38.06-5.54,4.23-8.57,10.2-9,17.74-.81,13.57,6.31,24.64,19.06,29.6a42,42,0,0,0,15.22,2.7,60,60,0,0,0,21.18-4.13c14.74-5.59,29.08-16.61,41.47-31.85a46.47,46.47,0,0,0,5.25-8.19c3,.59,5.48,1,7.28,1.2,14.79,1.47,29.14.49,40.41-2.75,13.48-3.88,22.13-10.87,25-20.22a2.22,2.22,0,0,0-4.24-1.31c-5.37,17.36-34.38,22.48-60.75,19.86-1.44-.14-3.4-.47-5.79-.93,3.67-8.65,5.94-18.76,7.38-28.52a10.13,10.13,0,0,0,2.77.67,8,8,0,0,0,1,0c4.74,0,8.67-3.49,10.63-5.63,3.1,3.45,8.06,5.38,14.22,5.41,8.09.06,18.17-3.42,24.12-9.38.55,3.39,1.79,5.59,3.9,6.67a13.64,13.64,0,0,0,6.28,1.49,17.59,17.59,0,0,0,5.79-1,25,25,0,0,0,8.68-5.37c.52,2.86,1.67,4.75,3.6,5.74a11.9,11.9,0,0,0,5.51,1.32c5.8,0,11.49-3.91,15.7-7.18a17,17,0,0,0,6.37,5.37c4.5,2.13,14,3.76,27.13-9.29a2.22,2.22,0,1,0-3.12-3.15ZM210.11,74.7a22,22,0,0,1,1.49,10.69,13,13,0,0,1-8.53-5.4c-3.12-4.6-2.81-10.45-2.09-13.21.28,0,.56.09.83.16C205.42,67.86,208.37,70.62,210.11,74.7Zm-17.94,29.79c-3.6-.93-6.55-3.69-8.29-7.77a22.91,22.91,0,0,1-.8-14.58c2-7.93,7.45-13.78,13.32-15.2-.77,4.25-.4,10.53,3,15.55a17.5,17.5,0,0,0,11.39,7.24C208,99.83,199.73,106.43,192.17,104.49Zm80.53,0c-3.6-.93-6.55-3.68-8.29-7.77a24.23,24.23,0,0,1,6.92-27c3.5-2.74,7.4-3.74,11-2.81,4.86,1.25,9.24,7.1,10.33,13.71-.65,2.86-1.24,5.63-1.7,8.27C288.25,99.41,280.07,106.39,272.7,104.5Zm48.42,40.09c-25.72,31.63-55.1,38.83-72.82,31.94-10.86-4.22-16.93-13.64-16.24-25.2.38-6.28,2.76-11,7.28-14.47,6.52-5,16.84-6.74,28.37-6.74,18.54,0,40.24,4.54,54.41,7.5l3.17.66A42.32,42.32,0,0,1,321.12,144.59ZM329,100.36c-3.47,2.76-7.36,3.77-10.94,2.85-7.67-2-11.75-12-9.1-22.35S320,63.69,327.67,65.66A14.19,14.19,0,0,1,337.21,75c0,.06.05.11.07.16-.14,3.52-.33,7.94-.67,12.9A23.21,23.21,0,0,1,329,100.36Zm30.77-30.62c3.08-3,6.66-4.67,9.82-4.67a7.91,7.91,0,0,1,3.15.63,4.55,4.55,0,0,1,2.78,2.74c.64,2.11-.3,5.27-2.74,9.14-3.35,5.34-13.15,13.28-18.1,17.11C350.77,83.84,354.64,74.74,359.74,69.74Zm46.59,30.84a10.55,10.55,0,0,1-8.57-.21c-1.56-.8-2.07-4.08-1.84-9.12v-.18c.44-9.24,3.26-24.33,6.5-41.15,3.95.86,8,1.92,12,3a72.16,72.16,0,0,0,8.33,1.8c-.16.82-.33,1.63-.49,2.42-3.25,15.9-5.63,27.53-6.07,35.45C415,95.22,410.93,99,406.33,100.58Zm36.84-8.39-.52.37a26,26,0,0,1-1.54-11.91c.72-7.47,6-15.56,11.8-18a8.66,8.66,0,0,1,3.41-.75,7.86,7.86,0,0,1,4.94,1.83,4,4,0,0,1,1.59,3.51c-.1,3.35-2.88,8.31-7.84,14A77,77,0,0,1,443.17,92.19Z"/></g></g></svg>