<svg xmlns="http://www.w3.org/2000/svg" viewBox="0 0 188.89 96.04"><defs><style>.cls-1{fill:#0a0a0d;}</style></defs><g id="Calque_2" data-name="Calque 2"><g id="Calque_11" data-name="Calque 11"><path class="cls-1" d="M77.69,38.55c-1.08-4.13-8.76-4.37-13.92-3.84-6.88.7-10.37,6-13.11,7.87-1.38,1.33-.84,1.26,0,1.18s3.11-.6,2.16,1.29-2.92,7.39-5.73,8.21a21.36,21.36,0,0,1-10.71.58c-4.36-1-3.75-3.07-4.49-4.09-.53-.72-3.42-2.41-5.35-1.79-2.45.8-2.59,2.92-4.15,3.71a15.13,15.13,0,0,1-8.63,1.07c-3.58-.81-5.68-5-6.31-7.23-.38-1.21-.65-1.63.93-1.61,1,0,1.86-1.2,2.2-1.61s5.21-6.32,5.86-7,.19-.8-1.27-.9-6.24-.15-9.55,2S-.08,39.78,0,41.61,2.59,50,5.24,51.47s2.33.24,4.74,1.78,3.33,1.41,5.36,1.51,3.11,1.56,1.25,3.61S12,62.26,11.74,65.8s.46,3.37.09,5-.83,2.48,1,3.81.73,2.3,1.95,3.85,1.52,2.5,4.12,3.23c3,.85,6.63-1.65,10.52-.36s3.37,5,7.06,6.08,4.47,1.39,5.7,4.33,1.63,2.56,2.43,2.38c1-.24,1.48-3.53,1.74-5.8.38-3.28-.47-5.24-3.34-8.08s-3.73-2.88-5.64-2.57S33.63,80.58,32,79.13s-6-1.27-7.75-1.37-6.18,0-7.21-1.22.73-.6,2-.41,6,.46,7.92.47,3.92,0,4.74-.14a5.81,5.81,0,0,0,4.23-2c.88-1,.81-1.61.44-1.81-.55-.31-1.2.53-2,1.25s-2.66.82-4.51.67c-.53,0-1.08-.46-.2-.93a6.52,6.52,0,0,0,2.91-4.56c.36-1.81.43-5.73-2.32-7-3.29-1.56-6.79,1-8.54,1s-2.92-.9-2.91-1.57,1.76-1.88,1.87-3.41-.44-1.74.19-2.46,2.35-1.06,4-2.56,1.95-3.82,4.54-2.12c2.4,1.59-.38,3.38.87,5.25s4.22,1.6,5.62,2.66c1.78,1.35.66,3.58,2.14,4.07s4.14.12,4.57,1.84-2.29,7.83.92,11.05,4,2.14,4.66,3.79,1.58,6.78,2.31,7.16,2.15-1.15,2.79-5,4.14-10.09,4.23-14.16S57.32,55.41,57.22,53s.26-2.21,2.1-1.89S66,52.79,70,50.19,78.77,42.68,77.69,38.55ZM16.19,71.11c-.92.36-2.21-.21-1.18-1.77.28-.43,1-1-.14-1.55-.94-.45-.92-1-.41-1.28s2,.47,2.47,1.91S17.1,70.75,16.19,71.11ZM23.79,68c1-.79,1.86-1.12,2.11-.76s-.14.91-.81,1.23-.65.62-.29,1.14c.82,1.2-.44,2.65-1.34,1.87C22.15,70.37,22.84,68.79,23.79,68Z"/><path class="cls-1" d="M45.67,44.24c1.23,0,1.81-.36,3-1.41s5.8-5.24,6.6-5.9.28-1.37,2.15-2.12A14.58,14.58,0,0,0,66.7,27c3.14-6.11,3-7.72,2.91-8.91s-1.12-1.41-1.86.21a11.66,11.66,0,0,1-9.06,7.07c-5.34,1-7.24-2.46-11.79-2.83s-4,1.19-1.92,1.27a15.73,15.73,0,0,1,6.85,2.68c1.1.92,1.91,1.51-1.55,2.75s-2.6,4.08-2.31,5,1.69,2.86-.54,4-3.28-.06-5,.55-3.65,3.59-5,3.66-2.88-.08-3.77,1.17-1.31,1.51-2.39,1.1A6.52,6.52,0,0,0,28,44.31c-.74.08-2.19.53-2.75-.44-.86-1.5-3.07-1.62-3.87-1.87a2.38,2.38,0,0,1-.94-3.5c1-1.87,2.92-3.71,3.11-6.29s-.31-4.74,4.45-5.93c3.86-1,8.12-.87,8.18-2,.06-1-.52-1.14,0-1.54.37-.29,1-.29,3-.33.86,0,3-1,0-1.07a38.61,38.61,0,0,0-13.89,1.85c-5.85,2-7.83.71-14.21-2.57-1.29-.56-2.35-.14-.86,2.36s3.42,6.42,5.45,7,6.6.62,6.37,2.44c-.36,2.8-2.79,1.85-3.3,2.35-1.12.94-7.2,8.08-7.65,8.69s.43.49,1.65.47,6.94-.27,8.81.12c3.35.7,2.69,3.35,3.29,3a5.12,5.12,0,0,1,4.61-.33c2.16.92,2.67,1.41,3,.46s1.76-2.15,4.26-2.44S43.15,44.26,45.67,44.24Z"/><path class="cls-1" d="M67.81,70.56c11.13-1.47-9.86-3.91-10.54-16-.83,2.38-6.58,28.11-5.12,30.84C53.32,83.29,55,72.24,67.81,70.56Z"/><path class="cls-1" d="M104.19,17.36A1,1,0,0,0,103,18a3.7,3.7,0,0,1-3,2.17,2.59,2.59,0,0,1-2.61-1.37,5.6,5.6,0,0,1-.74-2.29c1.39-.05,4.21-.35,5.74-1.85a3.4,3.4,0,0,0,1.06-2.5,2.8,2.8,0,0,0-2-2.77A5,5,0,0,0,96,11.39a7.82,7.82,0,0,0-1.28,5.41c-.28.82-1.15,2.63-2.52,3-1,.28-2.21-.2-3.61-1.44l-.6-.5c.76-1.21,1.44-2.51,2.08-3.73l.41-.79c.49-.94,1-2,1.42-3.2A7.59,7.59,0,0,0,100,4.82c.65-2.21-.14-4-2-4.63C94.37-1,92.39,3.62,90.68,7.93,86.78,7,84,7.08,82.43,8.2a3.25,3.25,0,0,0-1.37,2.51,2.68,2.68,0,0,0,1.24,2.51,3.94,3.94,0,0,0,3.84.13,1,1,0,1,0-.9-1.7,2,2,0,0,1-1.89,0,.76.76,0,0,1-.37-.77,1.33,1.33,0,0,1,.57-1.07c.62-.45,2.26-1,6.42,0-.41,1-.81,1.94-1.22,2.73l-.42.79c-.66,1.27-1.29,2.44-1.91,3.45-3.09-2.08-5.14-1.92-6.38-1.31A3.78,3.78,0,0,0,78,19.09a3.24,3.24,0,0,0,2.09,3,5.47,5.47,0,0,0,1.84.33c2,0,3.59-1.23,4.94-2.94l.43.37c1.92,1.7,3.75,2.32,5.42,1.84a5.24,5.24,0,0,0,2.79-2.23c0,.09.08.19.13.28a4.51,4.51,0,0,0,4,2.34l.48,0a5.67,5.67,0,0,0,4.68-3.45A1,1,0,0,0,104.19,17.36Zm-6.67-4.83a3.42,3.42,0,0,1,2.65-1.45,1.87,1.87,0,0,1,.59.09.91.91,0,0,1,.68.95,1.46,1.46,0,0,1-.48,1.11c-.94.92-3,1.22-4.29,1.3A5.07,5.07,0,0,1,97.52,12.53ZM97.43,2c1.12.36.95,1.57.74,2.26a5.83,5.83,0,0,1-5.56,4C94,4.88,95.5,1.4,97.43,2ZM80.71,20.25a1.39,1.39,0,0,1-.8-1.28,1.89,1.89,0,0,1,1-1.84,2,2,0,0,1,1-.2,6.54,6.54,0,0,1,3.49,1.37C84,20,82.52,20.88,80.71,20.25Z"/><path class="cls-1" d="M97.39,43.32c4.84-2,6.16-4.25,6.16-8.44,0-6-7-8.43-11.44-8.43H80.19a.75.75,0,0,0-.66,1.08l1,2A4.32,4.32,0,0,1,81,31.49V58.57a3.25,3.25,0,0,1-1.45,2.68l-1.44,1.07c-.6.44-.31,1.15.68,1.15H94.32c5.7,0,10.51-2.69,10.51-10.49S97.39,43.32,97.39,43.32ZM86.62,30.51a.62.62,0,0,1,.54-.62,24.18,24.18,0,0,1,3-.2c2.23,0,4.92.37,6.62,1.86a5.27,5.27,0,0,1,1.71,4.19,5.63,5.63,0,0,1-1.72,4.31c-2.64,2.44-7.59,2.35-9.59,2.19a.61.61,0,0,1-.57-.61ZM97.09,57.66c-2.8,2.58-7.85,2.46-9.9,2.29a.62.62,0,0,1-.57-.62V46.77a.6.6,0,0,1,.53-.6,22.26,22.26,0,0,1,3.19-.24c2.27,0,5,.39,6.77,1.93a6.09,6.09,0,0,1,2,4.83A6.43,6.43,0,0,1,97.09,57.66Z"/><path class="cls-1" d="M143.64,52.76a1.66,1.66,0,0,0-1.87,1.29c-.48,1.4-1.31,5.23-6.8,5.23-6.05,0-6.44-6.3-6.11-8.87.27-2,2.13-1.82,2.95-1.82l8.67-.08c2.13,0,3.93-.26,4.26-2.21.6-3.62-1.8-7-1.8-7-2-2.85-4.62-3.83-8.2-3.83a12.62,12.62,0,0,0-9.19,4.1A11,11,0,0,0,118,36.52c-6.5,0-11.77,5.93-11.77,13.25S111.5,63,118,63a11.15,11.15,0,0,0,8.43-4,11.91,11.91,0,0,0,14.71,2.09,9.35,9.35,0,0,0,3.74-6.62A1.71,1.71,0,0,0,143.64,52.76Zm-8.18-15.29c2.88,0,5.26,3.73,5.6,6.74a.7.7,0,0,1-.72.75H130.1a.69.69,0,0,1-.72-.75C129.72,41.2,132.58,37.47,135.46,37.47ZM117.52,60c-3.53,0-6.39-5.65-6.39-10.76s2.86-10.64,6.39-10.64,6.39,5.52,6.39,10.64S121.05,60,117.52,60Z"/><path class="cls-1" d="M162,41.89s0,5,0,10.32-.59,7-4.43,7c-3.64,0-4.6-2.19-4.6-4.48V37.06a.87.87,0,0,0-.86-.86l-6.47,0a.29.29,0,0,0-.21.5l.28.27a6.89,6.89,0,0,1,2.07,4.93h0V55.37c0,6.59,6.37,7.66,8.65,7.66,3.35,0,5.42-1.18,6.59-2.84.09.83.49,2.84,2.29,2.84,1,0,2-.74,2-3s-.11-18.09-.11-18.09V39l1.05-2a.51.51,0,0,0-.46-.75l-7.86,0a.3.3,0,0,0-.21.51l.27.26A6.91,6.91,0,0,1,162,41.89Z"/><path class="cls-1" d="M181.82,20.45c2.12,0,2.45,3.09,2.65,7.3a1,1,0,0,0,1.14,1.11c.8,0,3.76-2.25,3.22-4.33s-2.38-6.12-7-6.12a7.59,7.59,0,0,0-5.63,2.11c-2.36,2.4-2.61,6.29-2.56,9.37v10.2a.63.63,0,0,1-.63.63h-1.75a1.08,1.08,0,0,0-1.08,1.09l.91,2.84a1.2,1.2,0,0,0,1.14.84H173a.63.63,0,0,1,.63.62v13c0,3.76-.34,4.76-3.89,4.91a1.16,1.16,0,0,0-1.11,1.15V68a1.14,1.14,0,0,0,1.22,1.15c6.31-.32,8.91-3.3,8.91-10v-13a.62.62,0,0,1,.62-.62h3.4a1.09,1.09,0,0,0,1.09-1.09l-1.28-3a1.05,1.05,0,0,0-1-.66h-2.23a.63.63,0,0,1-.62-.63V29.85C178.76,24.49,179.16,20.45,181.82,20.45Z"/><path class="cls-1" d="M75.12,92.67c-.45.63-1,.82-1.27.72s-.33-.37-.34-.6a71.32,71.32,0,0,1,1-8,1.12,1.12,0,0,0-2.2-.38l0,.15a4.3,4.3,0,0,0-2.84-2c-2.74-.46-5.37,2-6,5.67s1,6.88,3.75,7.36a3.85,3.85,0,0,0,.67,0,4.76,4.76,0,0,0,3.57-1.84,2.63,2.63,0,0,0,1.75,1.73,2.72,2.72,0,0,0,.8.12A3.72,3.72,0,0,0,76.93,94a1.11,1.11,0,0,0-1.81-1.3ZM71,89.54c-.4,2.34-2,4.12-3.43,3.85S65.25,91,65.65,88.61c.38-2.19,1.78-3.87,3.15-3.87a1.27,1.27,0,0,1,.28,0C70.54,85,71.43,87.2,71,89.54Z"/><path class="cls-1" d="M105.23,92.42a1.12,1.12,0,0,0-1.56.25c-.45.63-1,.82-1.27.72a.58.58,0,0,1-.33-.6,71.22,71.22,0,0,1,1-8,1.11,1.11,0,1,0-2.19-.38l0,.15a4.28,4.28,0,0,0-2.83-2c-2.74-.46-5.38,2-6,5.67a8.5,8.5,0,0,0,0,3.19c-2.72,2.57-3.53,2.22-3.54,2.21-.44-.22-.81-1.26-.71-4.26,3.64-3.69,7.47-9,7.47-15.26,0-2.66-1.36-4.78-3.15-4.91S88,70.67,86.7,79.05c-.59,3.9-1,7-1.09,9.31a37.83,37.83,0,0,1-5.45,4.43,1.12,1.12,0,0,0,1.2,1.89,39.08,39.08,0,0,0,4.25-3.25c.16,2.37.78,3.62,1.89,4.19a2.49,2.49,0,0,0,1.15.27c1.4,0,2.91-1,4.29-2.26a4.27,4.27,0,0,0,2.83,2,3.71,3.71,0,0,0,.67,0A4.76,4.76,0,0,0,100,93.8a2.64,2.64,0,0,0,1.74,1.73,2.79,2.79,0,0,0,.81.12A3.7,3.7,0,0,0,105.48,94,1.1,1.1,0,0,0,105.23,92.42Zm-16.32-13c1-6.66,2.62-8,3-8h0c.37,0,1.09,1.1,1.09,2.69,0,4.42-2.31,8.45-5,11.62C88.25,84,88.52,81.91,88.91,79.39ZM99.58,89.54c-.41,2.34-2,4.12-3.43,3.85S93.8,91,94.21,88.61c.38-2.19,1.78-3.87,3.15-3.87a1.37,1.37,0,0,1,.28,0C99.09,85,100,87.2,99.58,89.54Z"/><path class="cls-1" d="M122.09,96a11.93,11.93,0,1,1,6.73-21.82,2,2,0,1,1-2.27,3.41,8.08,8.08,0,0,0-4.46-1.34,7.83,7.83,0,1,0,0,15.65,8,8,0,0,0,4.46-1.34A2,2,0,0,1,128.82,94,12.07,12.07,0,0,1,122.09,96Z"/><path class="cls-1" d="M140.67,95.93a11.39,11.39,0,1,1,11.39-11.39A11.4,11.4,0,0,1,140.67,95.93Zm0-18.68A7.29,7.29,0,1,0,148,84.54,7.3,7.3,0,0,0,140.67,77.25Z"/><path class="cls-1" d="M168.15,72.21H152.43a1.12,1.12,0,0,0-1.11,1.12v1.83a1.11,1.11,0,0,0,1.11,1.11h5.24a.6.6,0,0,1,.59.59v17.2a1.11,1.11,0,0,0,1.11,1.11h1.84a1.11,1.11,0,0,0,1.11-1.11V76.86a.6.6,0,0,1,.59-.59h5.24a1.11,1.11,0,0,0,1.11-1.11V73.33A1.12,1.12,0,0,0,168.15,72.21Z"/><path class="cls-1" d="M184,76.27a1.11,1.11,0,0,0,1.11-1.11V73.33A1.12,1.12,0,0,0,184,72.21H173.14A1.12,1.12,0,0,0,172,73.33V94.06a1.12,1.12,0,0,0,1.12,1.11H184a1.11,1.11,0,0,0,1.11-1.11V92.23A1.12,1.12,0,0,0,184,91.11h-7.31a.57.57,0,0,1-.57-.57V86a.58.58,0,0,1,.57-.57h2.77a1.11,1.11,0,0,0,1.11-1.11V82.51a1.12,1.12,0,0,0-1.11-1.12h-2.77a.57.57,0,0,1-.57-.57v-4a.58.58,0,0,1,.57-.57Z"/><path class="cls-1" d="M145.73,68.76l-4.79-4.05a1.28,1.28,0,0,0-.2-.11l-.06,0a1.34,1.34,0,0,0-.27-.07l-.16,0-.17,0a1.11,1.11,0,0,0-.26.07l-.07,0a2,2,0,0,0-.2.11l-4.78,4.05a1.06,1.06,0,0,0-.12,1.49l1,1.24a1,1,0,0,0,1.48.12l2.49-2.11a.89.89,0,0,1,1.15,0l2.5,2.11a1,1,0,0,0,1.48-.12l1-1.24A1.07,1.07,0,0,0,145.73,68.76Z"/></g></g></svg>