<svg xmlns="http://www.w3.org/2000/svg" viewBox="0 0 148.79 174.73"><defs><style>.cls-1{fill:#351211;}</style></defs><g id="Calque_2" data-name="Calque 2"><g id="Calque_11" data-name="Calque 11"><path class="cls-1" d="M59.12,70.53a4,4,0,0,0-4-2.24c-3.82.44-8.57,4.26-9.57,13.63-1.4,13.11,4.76,23,11.1,30.15s16.17,14.38,26.85,10.8c7.85-2.64-2.44-17.12-9.61-26.5C68.34,89.07,61.51,75.45,59.12,70.53Z"/><path class="cls-1" d="M66.21,61.26c-3.11,1.67-3,5.14-.93,9.37s10.52,19,17.06,27.25,8,13.43,8.93,16.56,2.89,3.07,5.78.47,14.33-15.91,0-39.15S66.21,61.26,66.21,61.26Z"/><path class="cls-1" d="M16.37,47.26a.84.84,0,0,1-.56-.36L2.31,27.54a.94.94,0,0,1-.18-.67.81.81,0,0,1,.38-.57l8.62-6c2.32-1.62,4.41-2.31,6.28-2.09a6.47,6.47,0,0,1,4.64,3,5.46,5.46,0,0,1,1.07,3.16,5.56,5.56,0,0,1-.68,2.8,6.38,6.38,0,0,1,6.29,2.68A7,7,0,0,1,30,35.57a9.2,9.2,0,0,1-4,5.35L17,47.12A.82.82,0,0,1,16.37,47.26Zm.18-18.07a4.07,4.07,0,0,0,1.82-2.37,3.11,3.11,0,0,0-.57-2.56,3,3,0,0,0-2.16-1.38,4.31,4.31,0,0,0-2.82,1L8.21,27.05l3.73,5.36Zm6.64,8.9A4,4,0,0,0,25,35.56a3.52,3.52,0,0,0-.64-2.76A3.48,3.48,0,0,0,22,31.26a4,4,0,0,0-3,.82L14.1,35.5l4.19,6Z"/><path class="cls-1" d="M36,34.71a.88.88,0,0,1-.48-.47L28.83,18.53a.86.86,0,0,1,0-.7.88.88,0,0,1,.47-.48L32,16.19a.86.86,0,0,1,.7,0,.92.92,0,0,1,.49.5L33.78,18a6.15,6.15,0,0,1,3.87-4.25l1.4-.59a.83.83,0,0,1,.67,0,.89.89,0,0,1,.47.5l1,2.43a.89.89,0,0,1,0,.66.81.81,0,0,1-.48.48l-2.64,1.13a3.38,3.38,0,0,0-1.93,4.8l3.89,9.14a.82.82,0,0,1,0,.67.81.81,0,0,1-.47.47l-3,1.27A.87.87,0,0,1,36,34.71Z"/><path class="cls-1" d="M50.13,27.39A8.69,8.69,0,0,1,47,21.93L44.91,12a.81.81,0,0,1,.11-.67.89.89,0,0,1,.56-.36l3.19-.67a.85.85,0,0,1,.66.12.82.82,0,0,1,.37.55l2.07,9.76q.91,4.35,4.72,3.56a3.89,3.89,0,0,0,2.68-1.79,4.65,4.65,0,0,0,.4-3.43L57.61,9.28a.77.77,0,0,1,.12-.67.85.85,0,0,1,.55-.36l3.16-.67a.85.85,0,0,1,.67.1.89.89,0,0,1,.36.57L66,25a.87.87,0,0,1-.1.65.84.84,0,0,1-.57.38l-3,.62a.83.83,0,0,1-.65-.12.86.86,0,0,1-.38-.55l-.3-1.46a7,7,0,0,1-5.33,3.91A6.68,6.68,0,0,1,50.13,27.39Zm-3.26-20a.9.9,0,0,1,.19-.67l2.69-4.31a2,2,0,0,1,.5-.59,1.47,1.47,0,0,1,.58-.24l2-.42a1.75,1.75,0,0,1,.64,0,1.67,1.67,0,0,1,.69.34l4.23,2.84a.92.92,0,0,1,.45.54c.06.31-.08.5-.44.57L57,5.73a2.33,2.33,0,0,1-1.15,0L52.48,4.47,49.86,7a2.32,2.32,0,0,1-1,.48l-1.31.28C47.15,7.82,46.94,7.71,46.87,7.4Z"/><path class="cls-1" d="M70.31,25.63A.81.81,0,0,1,70,25L69,1A.8.8,0,0,1,69.19.4a.83.83,0,0,1,.6-.26l3-.14a.87.87,0,0,1,.64.21.87.87,0,0,1,.26.62l1.07,24a.88.88,0,0,1-.21.63.81.81,0,0,1-.62.28l-3,.14A.83.83,0,0,1,70.31,25.63Z"/><path class="cls-1" d="M80.71,23.61a9.28,9.28,0,0,1-1.78-6.84l.07-.9A10.21,10.21,0,0,1,82.15,9,8.46,8.46,0,0,1,89,7.17,8.46,8.46,0,0,1,95.3,10.5a10,10,0,0,1,1.56,7.18l-.09.75a.82.82,0,0,1-.32.59.86.86,0,0,1-.67.18l-12-1.33,0,.28a5.63,5.63,0,0,0,.73,3.46,3.4,3.4,0,0,0,2.68,1.63A4.13,4.13,0,0,0,90.73,22a1.85,1.85,0,0,1,.55-.43,1.48,1.48,0,0,1,.63,0l3.17.36a.89.89,0,0,1,.54.24.62.62,0,0,1,.18.53,3.4,3.4,0,0,1-1.26,1.92,8.58,8.58,0,0,1-3.16,1.71,10.76,10.76,0,0,1-4.53.37A8.78,8.78,0,0,1,80.71,23.61ZM92,15.68v-.07a5.22,5.22,0,0,0-.68-3.53,3.61,3.61,0,0,0-2.76-1.6,3.56,3.56,0,0,0-3,1,5.28,5.28,0,0,0-1.42,3.29v.07Z"/><path class="cls-1" d="M98.71,28a.84.84,0,0,1-.06-.66l5-16.33a.88.88,0,0,1,.44-.55.8.8,0,0,1,.66-.07l2.85.87a.88.88,0,0,1,.6,1.14l-.44,1.42a6.13,6.13,0,0,1,5.7-.76l1.45.44a.86.86,0,0,1,.54.41.88.88,0,0,1,0,.68l-.77,2.53a.89.89,0,0,1-.41.52.84.84,0,0,1-.68.06l-2.74-.84A3.64,3.64,0,0,0,108,17a3.58,3.58,0,0,0-1.72,2.28l-2.91,9.5a.85.85,0,0,1-1.08.58l-3.09-.94A.92.92,0,0,1,98.71,28Z"/><path class="cls-1" d="M112.39,32.66a.8.8,0,0,1,0-.66l7-15.6a.81.81,0,0,1,.49-.47.84.84,0,0,1,.66,0l2.81,1.27a.85.85,0,0,1,.43,1.15l-7,15.6a.85.85,0,0,1-.48.45.82.82,0,0,1-.67,0l-2.81-1.27A.81.81,0,0,1,112.39,32.66Zm8.9-20a.84.84,0,0,1,0-.66l1.09-2.42a.92.92,0,0,1,.5-.49.87.87,0,0,1,.67,0l3,1.37a.92.92,0,0,1,.49.5.9.9,0,0,1,0,.7L126,14.05a.83.83,0,0,1-.5.45.89.89,0,0,1-.68,0l-3-1.37A.82.82,0,0,1,121.29,12.61Z"/><path class="cls-1" d="M122.57,35.57a9.25,9.25,0,0,1,1.51-6.9l.47-.78a10.23,10.23,0,0,1,5.91-4.67,8.45,8.45,0,0,1,6.93,1.43,8.47,8.47,0,0,1,4.13,5.84,10,10,0,0,1-1.87,7.1l-.42.64a.84.84,0,0,1-.55.38.94.94,0,0,1-.68-.15l-10.06-6.61-.16.24a5.67,5.67,0,0,0-.92,3.41,3.4,3.4,0,0,0,1.65,2.67,4.1,4.1,0,0,0,3.74.46,1.94,1.94,0,0,1,.69-.13,1.46,1.46,0,0,1,.57.26l2.66,1.75a.91.91,0,0,1,.37.46.6.6,0,0,1-.08.56,3.41,3.41,0,0,1-2,1.14,8.49,8.49,0,0,1-3.59.09A10.77,10.77,0,0,1,126.67,41,8.81,8.81,0,0,1,122.57,35.57Zm13.7-1.94,0-.06a5.16,5.16,0,0,0,1-3.45,3.58,3.58,0,0,0-1.73-2.68,3.53,3.53,0,0,0-3.13-.51,5.21,5.21,0,0,0-2.76,2.28l0,.06Z"/><path class="cls-1" d="M0,135.83a.83.83,0,0,1,.3-.58l17.51-14.72a.9.9,0,0,1,.63-.23.8.8,0,0,1,.58.31l5.86,7A10.41,10.41,0,0,1,27.7,134a6.9,6.9,0,0,1-2.79,5.53,7.26,7.26,0,0,1-4.08,1.83,6.83,6.83,0,0,1-4.14-1l-3.58,9.67a1.05,1.05,0,0,1-.22.33.67.67,0,0,1-.55.16.71.71,0,0,1-.49-.25l-2.08-2.47A1.3,1.3,0,0,1,9.4,147a2.6,2.6,0,0,1,.16-.87L13,137.3l-3.1-3.68L3.49,139a.77.77,0,0,1-.61.2.88.88,0,0,1-.6-.32L.2,136.44A.81.81,0,0,1,0,135.83Zm16.15-1.05a4.7,4.7,0,0,0,2.75,1.82,3.42,3.42,0,0,0,2.76-.95,3.58,3.58,0,0,0,1.44-2.58,4.56,4.56,0,0,0-1.3-3l-3.14-3.74L13,131Z"/><path class="cls-1" d="M18.35,155a.8.8,0,0,1,.16-.62l10-13.21a.79.79,0,0,1,.57-.34.85.85,0,0,1,.61.18l2.38,1.8a.8.8,0,0,1,.33.56.81.81,0,0,1-.17.62l-10,13.21a.82.82,0,0,1-.56.33.8.8,0,0,1-.63-.17l-2.37-1.8A.8.8,0,0,1,18.35,155Zm12.74-17a.84.84,0,0,1,.16-.63l1.55-2a.89.89,0,0,1,.58-.36.85.85,0,0,1,.63.17L36.58,137a.85.85,0,0,1,.36.58.84.84,0,0,1-.19.65l-1.55,2.05a.78.78,0,0,1-.57.31.86.86,0,0,1-.64-.17l-2.57-2A.78.78,0,0,1,31.09,137.94Z"/><path class="cls-1" d="M30.3,161.42a8.14,8.14,0,0,1,.39-6.41l.58-1.28.64-1.25a8.12,8.12,0,0,1,4.79-4.28,8.67,8.67,0,0,1,6.48.75A10.19,10.19,0,0,1,47,151.88a7.22,7.22,0,0,1,1.52,3.4,5.58,5.58,0,0,1-.29,2.89.68.68,0,0,1-.46.44.89.89,0,0,1-.66-.05l-2.82-1.36a.76.76,0,0,1-.43-.39,1.55,1.55,0,0,1-.07-.67,4,4,0,0,0-.41-2.34,3.75,3.75,0,0,0-1.71-1.5,3.54,3.54,0,0,0-3-.2,5.25,5.25,0,0,0-2.46,2.63l-.6,1.16L35.1,157q-1.8,4.2,1.49,5.79a3.75,3.75,0,0,0,2.24.44A4,4,0,0,0,40.92,162a1.41,1.41,0,0,1,.54-.36.8.8,0,0,1,.6.1l2.81,1.36a.84.84,0,0,1,.45.49.67.67,0,0,1,0,.63,5.59,5.59,0,0,1-2,2,7.37,7.37,0,0,1-3.6,1A9.91,9.91,0,0,1,34.92,166,8.69,8.69,0,0,1,30.3,161.42Z"/><path class="cls-1" d="M50.81,171.68a.78.78,0,0,1-.15-.63l3.74-23a.86.86,0,0,1,.34-.57.87.87,0,0,1,.63-.13l3.16.52a.86.86,0,0,1,.57.32.82.82,0,0,1,.12.64l-1.29,7.91a7,7,0,0,1,6-1.59,6.67,6.67,0,0,1,4.76,2.93,8.31,8.31,0,0,1,1,6L68.57,174a.89.89,0,0,1-.32.55.81.81,0,0,1-.65.14l-3.16-.51a.84.84,0,0,1-.58-.35.76.76,0,0,1-.15-.62s1-7.23,1.06-9.66.06-2.44-.48-3.3a3.62,3.62,0,0,0-2.64-1.59,3.76,3.76,0,0,0-3,.68A4.45,4.45,0,0,0,57,162.3l-1.55,9.54a.86.86,0,0,1-.32.55.8.8,0,0,1-.65.15L51.36,172A.79.79,0,0,1,50.81,171.68Z"/><path class="cls-1" d="M78.18,172.64a9,9,0,0,1-3.21-6l-.14-.86a9.85,9.85,0,0,1,1.43-7.16,8.16,8.16,0,0,1,6-3.29A8.2,8.2,0,0,1,89,157a9.68,9.68,0,0,1,3.08,6.41l.09.74a.81.81,0,0,1-.17.62.85.85,0,0,1-.59.32l-11.58,1.43,0,.28a5.48,5.48,0,0,0,1.47,3.1,3.29,3.29,0,0,0,2.89.93,4,4,0,0,0,3-2,1.82,1.82,0,0,1,.43-.54,1.58,1.58,0,0,1,.58-.16l3.07-.38a.89.89,0,0,1,.56.11.62.62,0,0,1,.29.46,3.29,3.29,0,0,1-.75,2.09,8.33,8.33,0,0,1-2.6,2.33,10.41,10.41,0,0,1-4.19,1.36A8.49,8.49,0,0,1,78.18,172.64Zm8.9-10v-.07a5,5,0,0,0-1.44-3.16,3.46,3.46,0,0,0-3-.89A3.4,3.4,0,0,0,80,160.07a5,5,0,0,0-.61,3.42v.07Z"/><path class="cls-1" d="M100.78,170.58a.83.83,0,0,1-.44-.48l-8.27-21.59a.82.82,0,0,1,0-.67.83.83,0,0,1,.48-.42l2.77-1a.79.79,0,0,1,1.09.49l8.27,21.6a.88.88,0,0,1,0,.64.79.79,0,0,1-.5.44l-2.76,1A.86.86,0,0,1,100.78,170.58Z"/><path class="cls-1" d="M112.12,165.7a.84.84,0,0,1-.54-.36l-7.8-13.69a.8.8,0,0,1-.14-.64.78.78,0,0,1,.36-.53l2.28-1.58a.79.79,0,0,1,1.17.21l.68,1a6.2,6.2,0,0,1,2.83-4.86,5.57,5.57,0,0,1,6.26-.53,6.32,6.32,0,0,1,.68-3.22,6.72,6.72,0,0,1,2.25-2.6,6.1,6.1,0,0,1,5-1.06,8,8,0,0,1,4.76,3.67l5.86,7.48a.88.88,0,0,1,.15.62.81.81,0,0,1-.37.56l-2.4,1.65a.79.79,0,0,1-.63.14.8.8,0,0,1-.54-.35s-4-5.34-5.69-7.25-1.7-1.92-2.59-2.1a3.15,3.15,0,0,0-2.56.58,3.07,3.07,0,0,0-1.36,2.15,4.43,4.43,0,0,0,1,3.16l5,7.43a.86.86,0,0,1,.15.62.79.79,0,0,1-.36.56l-2.43,1.67a.79.79,0,0,1-.63.14.8.8,0,0,1-.54-.35l-5-7.43a4.51,4.51,0,0,0-2.58-2.07,3.2,3.2,0,0,0-2.57.55,3.14,3.14,0,0,0-1.35,2.15c-.15.92-.1,1.24.88,3.31s3.7,7,4.07,8c.12.3.19.4.16.62a.85.85,0,0,1-.37.55l-2.45,1.7A.86.86,0,0,1,112.12,165.7Z"/><path class="cls-1" d="M142,142.1a9,9,0,0,1-6.73-1.27l-.76-.43a9.84,9.84,0,0,1-4.69-5.58,8.17,8.17,0,0,1,1.18-6.76,8.26,8.26,0,0,1,5.53-4.17,9.79,9.79,0,0,1,6.94,1.61l.63.38a.86.86,0,0,1,.38.53.84.84,0,0,1-.13.66L138.21,137l.24.15a5.5,5.5,0,0,0,3.33.79,3.3,3.3,0,0,0,2.54-1.68,4,4,0,0,0,.33-3.63,2.11,2.11,0,0,1-.14-.67,1.39,1.39,0,0,1,.24-.55l1.62-2.64a.85.85,0,0,1,.43-.37.59.59,0,0,1,.54.07,3.24,3.24,0,0,1,1.17,1.89,8.48,8.48,0,0,1,.19,3.48,10.53,10.53,0,0,1-1.55,4.12A8.53,8.53,0,0,1,142,142.1Zm-2.27-13.21-.06,0a5,5,0,0,0-3.37-.85,3.47,3.47,0,0,0-2.54,1.75,3.4,3.4,0,0,0-.41,3.05,5.06,5.06,0,0,0,2.29,2.61l.06,0Z"/></g></g></svg>