<svg xmlns="http://www.w3.org/2000/svg" viewBox="0 0 120.46 130.88"><defs><style>.cls-1{fill:#20201e;}</style></defs><g id="Calque_2" data-name="Calque 2"><g id="Calque_11" data-name="Calque 11"><path class="cls-1" d="M46.72,35.18c4.12,0,5.84-3.31,7.66-7.72l.7.1A26.15,26.15,0,0,0,60,28a10.37,10.37,0,0,0,2.09-.35,4.5,4.5,0,0,0,3.55,2c2.19.1,4.37-1.32,6-3.88a.84.84,0,1,0-1.43-.9c-1.26,2-2.93,3.16-4.48,3.09A2.71,2.71,0,0,1,63.79,27c2.26-1,4.26-2.52,5-4.1a2.74,2.74,0,0,0-.29-3c-1-1.3-3.24-1.37-5.13-.15a5.09,5.09,0,0,0-2,6.24,8,8,0,0,1-1.41.21A24.61,24.61,0,0,1,55.29,26l-.27,0,0-.06c.36-.9.8-1.86,1.2-2.82.32-.73.57-1.6.87-2.49,2.29-.08,6.71-1.08,10.4-7.06,4.41-7.16,3-10.67,2.13-11.85A3.76,3.76,0,0,0,65.73.09c-4.53,1-6.81,8.69-8.81,15.51-.33,1.12-.65,2.26-1,3.29A5.55,5.55,0,0,1,52.19,17a.85.85,0,1,0-1.38,1,7.14,7.14,0,0,0,4.64,2.44c-.24.69-.52,1.35-.76,1.92-.41,1-.75,2-1.11,2.87l-.19.48a15.73,15.73,0,0,0-6,.24,6.09,6.09,0,0,0-4.52,6.21A3.48,3.48,0,0,0,46.72,35.18ZM64.27,21.25a3.62,3.62,0,0,1,1.87-.59,1.29,1.29,0,0,1,1,.37,1.06,1.06,0,0,1,.07,1.21c-.57,1.25-2.34,2.54-4.3,3.32A3.42,3.42,0,0,1,64.27,21.25Zm-5.73-5.17c1.78-6,4-13.58,7.54-14.34a2.49,2.49,0,0,1,.46-.05,2.1,2.1,0,0,1,1.72.93c.49.7,1.8,3.5-2.19,10-2.28,3.7-5.29,6-8.42,6.31C57.93,18,58.26,17,58.54,16.08ZM47.86,27.6A12.31,12.31,0,0,1,51,27.18c.58,0,1.15,0,1.73.08-1.73,4.07-3.16,6.22-6,6.22-.89,0-2-.26-2.15-1.52A4.39,4.39,0,0,1,47.86,27.6Z"/><path class="cls-1" d="M28.85,74.36c1.51-.61,2.75-1,3.82-1.38a15.11,15.11,0,0,0,6.69-3.63.85.85,0,1,0-1.17-1.22c-2,1.91-3.54,2.42-6,3.25-.83.27-1.86.69-2.94,1.1,1-4,2.62-9,4.5-14.89,1.59-5,3.37-10.52,5.23-16.9.24-.78.46-1.55.66-2.32a.84.84,0,0,0-.59-1,.85.85,0,0,0-1,.58c-.21.74-.41,1.46-.62,2.17a80.94,80.94,0,0,1-10.47,21.4c-5.43,7.8-11.3,12.82-16.53,14.15-2.92.74-5.26,0-6.78-2.13C.58,69.32.94,59.77,6.69,51c4.34-6.58,9-11.41,13.5-14,4-2.25,7.62-2.66,10.56-1.19a.85.85,0,1,0,.76-1.51c-5.77-2.88-15.69-.26-26.23,15.73-5.6,8.5-6.93,19-3.09,24.38,1.92,2.71,5,3.7,8.56,2.79,7.82-2,17.22-12.51,22.92-24.05-.18.56-1.4,3.29-1.58,3.84C30,63.56,28.32,68.83,27.38,73.13A64.31,64.31,0,0,0,21,76.31c-9.13,5.16-12.43,13-11,18.07a5,5,0,0,0,4.84,4h.26C22.81,98,27.55,81.37,28.73,75ZM15.06,96.64a3.31,3.31,0,0,1-3.39-2.73c-1.25-4.32,1.9-11.45,10.17-16.13,2-1.11,3.73-2,5.2-2.71C25.34,83.77,20.42,96.4,15.06,96.64Z"/><path class="cls-1" d="M44.68,65.6l.4,0c2.48-.33,4.72-3.45,6.32-6.65.07,1.44.27,3,.9,3.73a2,2,0,0,0,1.81.68c2-.27,3.77-2.87,5.09-5.93a4.7,4.7,0,0,0,.94,2.74,2.21,2.21,0,0,0,2,.61,8.81,8.81,0,0,0,5.24-3.37,4.27,4.27,0,0,0,3.09,1.49h0c2.36,0,4.32-2.35,5.39-4.76a5.75,5.75,0,0,0,.74,1.56,3,3,0,0,0,2.32,1.08h0c2.19,0,3.51-2.17,4.39-3.56l.25-.38a3.57,3.57,0,0,0,.31.37c1.86,2,5.38,2.75,9-.24a.84.84,0,1,0-1.07-1.3c-3,2.45-5.55,1.76-6.78.44L85,52c2.14-.67,6-2.37,7.06-4.65a2.88,2.88,0,0,0-.21-2.86,3.21,3.21,0,0,0-2.7-1.61H89c-1.89,0-3.8,1.55-4.88,3.1a7,7,0,0,0-1.27,5.13,7.09,7.09,0,0,0-1,1.26c-.77,1.2-1.72,2.7-3,2.7h0a1.23,1.23,0,0,1-1-.46c-.79-1-.78-3.29-.61-5.2.11-.9.24-2,.39-3.32.57-5,1.53-13.28,2.22-14.83a.85.85,0,0,0-.43-1.12.85.85,0,0,0-1.12.43c-.71,1.59-1.45,7.47-2.26,14.51a6.44,6.44,0,0,0-5.32-1c-1.67.46-3.85,1.92-4.82,6.24A9,9,0,0,0,66.38,56a7.41,7.41,0,0,1-4.49,3.08.58.58,0,0,1-.55-.13c-1.06-1.07-.34-6.34.12-9.39,0-.23.07-.45.1-.66a.84.84,0,0,0-1.67-.25l-.09.61c-.93,5.72-3.57,12.08-5.92,12.39a.31.31,0,0,1-.31-.11c-.82-.94-.66-4.73,0-8.12.19-.71.35-1.37.45-2a.85.85,0,0,0-1.65-.37c-.13.47-.28,1.14-.44,1.92-1.26,4.66-4.25,10.5-7.07,10.88a.76.76,0,0,1-.85-.34c-1.14-1.71,0-7.66,1.66-10.57a.85.85,0,0,0-1.47-.84c-1.56,2.73-3.4,9.66-1.59,12.35A2.41,2.41,0,0,0,44.68,65.6ZM85.55,46.92c.8-1.15,2.29-2.37,3.48-2.37h0a1.56,1.56,0,0,1,1.31.83,1.18,1.18,0,0,1,.09,1.25c-.74,1.63-4.32,3.35-6.15,3.91A5.4,5.4,0,0,1,85.55,46.92Zm-18,3.71c.62-2.77,1.87-4.49,3.62-5a3.79,3.79,0,0,1,1-.14,5.22,5.22,0,0,1,3.59,1.56c-.24,2-.44,3.68-.54,4.17-.44,2-2.67,5.93-4.86,5.94h0a2.57,2.57,0,0,1-2-1c-.09-.12-.18-.25-.26-.38a1.2,1.2,0,0,0-.13-.21A7.28,7.28,0,0,1,67.6,50.63Z"/><path class="cls-1" d="M60.15,43v.16A.85.85,0,0,0,61,44a.84.84,0,0,0,.84-.85V43a.84.84,0,0,0-.84-.85A.85.85,0,0,0,60.15,43Z"/><path class="cls-1" d="M59.74,107.15c-2.79-2.47-6.72-4.56-10.88-6.76-7.62-4-15.5-8.23-15.63-14.76,0-2.23,1.36-4.52,3.87-6.29,3.36-2.37,7.68-3.09,11-1.83a.85.85,0,0,0,.6-1.58c-3.84-1.46-8.78-.66-12.58,2-3,2.1-4.65,4.91-4.6,7.71.16,7.52,8.49,11.94,16.54,16.21,4.07,2.16,7.91,4.2,10.55,6.53a12.42,12.42,0,0,1,3.78,11.45c-1,4.14-4.49,7.13-10.17,8.65C42.65,131.07,34.35,126,31.4,120c-2.58-5.3-1-10.79,4.14-14.7a.85.85,0,0,0-1-1.35c-5.87,4.44-7.61,10.71-4.64,16.79,2.65,5.44,9.22,10.15,17.25,10.15a21.29,21.29,0,0,0,5.54-.74c8-2.13,10.59-6.55,11.37-9.89A14,14,0,0,0,59.74,107.15Z"/><path class="cls-1" d="M55.7,77.29a.85.85,0,1,0-1.64-.41c-.59,2.36-3.69,4.66-5.63,5.62a.85.85,0,0,0-.37,1.14.84.84,0,0,0,.75.47.85.85,0,0,0,.38-.09C51.24,83,54.92,80.42,55.7,77.29Z"/><path class="cls-1" d="M67.91,91.71c-.7.14-2,.09-3.08-1.76a.84.84,0,0,0-1.47.83,4.57,4.57,0,0,0,4.87,2.59,4.12,4.12,0,0,0,3.38-3.25c.37-2.74-2.26-5-4.37-6.84a21.37,21.37,0,0,1-1.61-1.48,1.13,1.13,0,0,0-1.14-.4c-.88.2-1.19,1.25-1.8,3.35a25.4,25.4,0,0,1-2.27,5.81c-1.52,2.52-4.1,4.38-6.26,4.52a3.34,3.34,0,0,1-2.84-1.21c2.22-.68,6.58-2.5,7.31-5.1a3.1,3.1,0,0,0-1.16-3.25C55.89,84.1,53.85,84.28,52,86c-2.45,2.3-3.81,6.59-2,8.89a4.77,4.77,0,0,0,3.86,1.89h.37c2.72-.18,5.78-2.32,7.6-5.33a27.46,27.46,0,0,0,2.44-6.21c.18-.61.38-1.32.56-1.8.37.36.81.74,1.26,1.13,1.8,1.56,4.05,3.5,3.8,5.33A2.47,2.47,0,0,1,67.91,91.71ZM53.18,87.23a3.08,3.08,0,0,1,1.94-1,1.77,1.77,0,0,1,1.21.5c.79.71.76,1.22.67,1.54-.47,1.66-4.12,3.49-6.22,4.11A7.58,7.58,0,0,1,53.18,87.23Z"/><path class="cls-1" d="M119.94,75.46a.85.85,0,0,0-1.11.46A5,5,0,0,1,113.39,79a2.63,2.63,0,0,1-.67-.19A11.5,11.5,0,0,0,116,72.61c.28-2.78-.91-3.65-1.63-3.91-1.36-.5-3.13.33-4.3,2a7.83,7.83,0,0,0-.37,7,6,6,0,0,0,.74,1.19A6.16,6.16,0,0,1,108,80.31a.81.81,0,0,1-.75-.14c-.32-.27-.85-1.12-.85-3.86,0-2.15-.53-3.8-1.48-4.64a2.11,2.11,0,0,0-1.7-.55c-1,.13-3.67,1.93-4.13,5.68-.18-2.21-.84-2.9-1.47-3.36a2.42,2.42,0,0,0-2.25-.32c-1.86.59-3.18,2.52-3.59,5.25-.45-2.78-1.47-3.64-2.59-3.69a3.26,3.26,0,0,0-2.33.92,7.55,7.55,0,0,0-2,5.35c-.16,5.19-1.39,5.73-2,6a1.55,1.55,0,0,1-1.22-.14,1.25,1.25,0,0,1-.41-1c0-.45,0-.94,0-1.49a28.16,28.16,0,0,1,.27-5.51.85.85,0,0,0-.7-1,.86.86,0,0,0-.94.71,5.24,5.24,0,0,0-4.2.41,6.24,6.24,0,0,0-3,4.77c-.33,2.55.16,4.72,1.32,6a3.17,3.17,0,0,0,2.31,1h.22a5.33,5.33,0,0,0,4-2.56l.11.08a3,3,0,0,0,1.72.51,2.84,2.84,0,0,0,1.13-.21c1.45-.63,2.82-2,3-7.47A6,6,0,0,1,88,76.85a1.55,1.55,0,0,1,1.1-.48c.41,0,1.92,1.62,1.92,9.1a.85.85,0,0,0,1.69,0c0-6.92.92-10,3.16-10.74a.72.72,0,0,1,.74.07c.7.52,1.54,2.5,1.54,9a.85.85,0,0,0,1.69,0c0-7.82,1.93-10.84,3.58-11a.43.43,0,0,1,.37.14c.42.37.9,1.47.9,3.37,0,2.69.47,4.32,1.46,5.16a2.57,2.57,0,0,0,2.14.51,8.39,8.39,0,0,0,3.28-2,4.53,4.53,0,0,0,1.73.71,6.49,6.49,0,0,0,7.14-4.13A.84.84,0,0,0,119.94,75.46ZM76.44,89a1.46,1.46,0,0,1-1.18-.5c-.8-.86-1.13-2.57-.87-4.59a4.56,4.56,0,0,1,2.11-3.51,3.55,3.55,0,0,1,1.78-.48,3.31,3.31,0,0,1,1.32.23l.05,0a33,33,0,0,0-.11,4.17c0,.4,0,.76,0,1.1,0,.12,0,.24,0,.35a3.15,3.15,0,0,1,0,.44A3.6,3.6,0,0,1,76.44,89Zm35.09-11.12a4.63,4.63,0,0,1-.35-.65,6.47,6.47,0,0,1,.24-5.52,3,3,0,0,1,2.07-1.44,1,1,0,0,1,.25,0c.44.17.65,1,.53,2.16A10.1,10.1,0,0,1,111.53,77.85Z"/><path class="cls-1" d="M99.8,94.48c-1.45.34-9.06,2.14-16.85,4.44-6.83,2-13.87,4.41-15.91,5.31a.84.84,0,0,0,.34,1.62.83.83,0,0,0,.34-.07c1.72-.76,8.31-3.06,15.7-5.24,6-1.77,12.79-3.49,16.76-4.42a.84.84,0,0,0-.38-1.64Z"/></g></g></svg>