<svg xmlns="http://www.w3.org/2000/svg" viewBox="0 0 224.68 187.13"><defs><style>.cls-1{fill:#20201e;}</style></defs><g id="Calque_2" data-name="Calque 2"><g id="Calque_11" data-name="Calque 11"><path class="cls-1" d="M78.55,107a.8.8,0,0,1,0,1.6C73,109.14,59.4,111.52,44,118.89,15.72,132.38,22.64,160,37.47,153.77,51.27,148,67.52,80.23,69.56,72.21c1.63-6.41,1.82-7.45,1.24-7.85a1.15,1.15,0,0,0-1-.1C57.73,68.35,43.59,79.4,38.28,88c-5,8.08-1.13,9.88,3.35,10.35a.5.5,0,0,1,.22.93,9.86,9.86,0,0,1-4.93.06c-2.82-.75-14.14-6.85,6.67-24.11C65.23,57.29,76,57.64,76.67,60.89c1.08,5-2.57,15.08-9,40-5.2,20-10.28,33-15,41.3C44.58,156.5,37.47,157,31.37,156.35c-9.76-1-19.86-13.25-6.92-28.8C35.83,113.89,63.73,106,78.55,107Z"/><path class="cls-1" d="M97.72,95.93c-1.29,2-5,2.87-4-3.26s2.61-12.3,2.83-13.78c.33-2.27-2.11-3-3.76-.85-.28.38-.57.44-.84.24a10.05,10.05,0,0,0-8.06-.75,13.94,13.94,0,0,0-9.75,13.12c0,6.76,4.35,8.44,8.86,8.44a8.22,8.22,0,0,0,6-2c.79-.79,1.22-1,1.47-.25.54,1.64,2,2,4.61,2,2.37,0,3.92-2.24,4.06-2.44S98.08,95.36,97.72,95.93Zm-7-7.55c-1,6.46-4,8.68-6.76,8.68-3.87,0-4.49-5.32-3.31-9.21,1.13-3.72,3.74-9.47,7.79-9.2C91.88,78.88,91.37,84.3,90.75,88.38Z"/><path class="cls-1" d="M158.6,163.23c-1.22,2-3.78,3.5-2.34-2.55,1.49-6.31,3.46-11.69,3.67-13.17.14-1-.19-1.8-.7-2-.79-.25-1.55.22-2.37,1.45-.35.53-.74.11-1.1-.51-1.1-1.93-4.51-2.35-8.08-1.11A13.89,13.89,0,0,0,138.13,158c-.54,6.73,3.35,8.92,7.6,8.92a8.6,8.6,0,0,0,5.84-2c.55-.48.78-.49,1,0,.56,1.38,1.45,2,3.38,2,2.23,0,4.12-2.84,4.26-3S158.94,162.66,158.6,163.23Zm-4.44-7c-1.42,6.51-4.15,8.68-6.74,8.68-3.66,0-4.12-5.84-3.52-9,.73-3.8,4.28-9.41,8.11-9.42S155,152.2,154.16,156.23Z"/><path class="cls-1" d="M135.61,93.81c-1.29,2-5.58,4.51-4.44-1.61,1.18-6.29,2.26-11.32,2.48-12.8.34-2.28-2.61-3.17-3-.4-.12.84-.57.66-.73.35-.82-1.63-3.39-3-7.23-1.88-4.73,1.33-9.05,6.43-9.05,13.18s3.43,8.24,6.58,8.24c3.44,0,4.11-.55,5-1.15s1.38-.55,1.12.47c-.13.49-3.5,16.77-3.66,18.79-.12,1.47,3.34,1,3.54,0,.24-1.27,3.3-16.91,3.63-18,.13-.43.4-.59.79-.31a1.86,1.86,0,0,0,1.44.2c1.87-.3,5.09-3.32,5.23-3.52S136,93.25,135.61,93.81Zm-8.34-1.19c-.52,2.08-3.31,4-5.67,4-3.88,0-3.37-4.71-2.18-8.6,1.13-3.71,4.14-9.18,7.89-9,1.56.08,2.36,2.06,1.92,4.09C128.85,84.82,127.81,90.5,127.27,92.62Z"/><path class="cls-1" d="M117.87,161.9c-1.29,2-5.58,4.51-4.44-1.61,1.18-6.29,2.26-11.32,2.48-12.81.34-2.27-2.61-3.16-3-.39-.12.84-.57.65-.72.35-.83-1.63-3.4-3-7.24-1.89-4.73,1.34-9,6.43-9,13.19s3.43,8.24,6.58,8.24c2.61,0,4.17-.48,5-1.15s1.38-.56,1.12.47c-.12.49-3.5,16.77-3.66,18.79-.12,1.47,3.34,1,3.54-.05.24-1.27,3.31-16.91,3.63-18,.13-.44.42-.95.72-.57a1.51,1.51,0,0,0,1.52.46c1.86-.3,5.08-3.32,5.23-3.53S118.24,161.34,117.87,161.9Zm-8.34-1.19c-.52,2.07-3.31,4-5.67,4-3.88,0-3.36-4.71-2.18-8.6,1.13-3.72,4.14-9.18,7.89-9,1.56.08,2.14,2.2,2,4.07A95.46,95.46,0,0,1,109.53,160.71Z"/><path class="cls-1" d="M110.1,78.34a2.57,2.57,0,0,1,2.76,2.7c0,1.39,1.55,1.35,1.92-.12.33-1.29-.52-3.8-4.68-4.06S97.58,78.8,96.29,89.45c-1.21,10,8.69,9.73,10.8,9.26,2.79-.62,4.75-2.61,6.8-4.92,1.91-2.15,1.09-3.52-.25-2.09s-4.33,4.88-7.64,5.24c-2.85.3-4.36-3.8-3.63-8.15S106.66,78.47,110.1,78.34Z"/><path class="cls-1" d="M138.88,78.48c.31-1.1.62-1.57,1-1.73a4,4,0,0,1,2.79-.11c.56.29.83.53.79,1.24-.11,1.84-2.64,11.83-3,14.4-.3,2.38-.16,4.23,1.53,4.23,1.94,0,3.15-2,4.31-4.47,1.85-3.93,4.54-13.29,4.67-13.86a2,2,0,0,1,1-1.4,2.88,2.88,0,0,1,2.45,0,2,2,0,0,1,.6,2c-.11,1.16-2.89,12.49-3.11,14.74-.17,1.77.27,3.8,1.72,3.8,2,0,3.29-2.51,3.39-2.91s1-.14,1.05,0a1.1,1.1,0,0,1-.26.87c-.24.19-1.55,3.89-4.74,3.89-3,0-4.85-1.14-5.29-4-.21-1.33-.42-1.51-.91-.53a7.17,7.17,0,0,1-6.59,4.52c-4.73,0-5.54-3.45-5.41-5.8C135.08,90.4,138.56,79.59,138.88,78.48Z"/><path class="cls-1" d="M179.38,78.48c.31-1.1.62-1.57,1-1.73a4,4,0,0,1,2.79-.11c.56.29.83.53.79,1.24-.11,1.84-2.64,11.83-3,14.4-.3,2.38-.16,4.23,1.53,4.23,1.94,0,3.16-2,4.31-4.47,1.85-3.93,4.54-13.29,4.67-13.86a2,2,0,0,1,1-1.4,2.88,2.88,0,0,1,2.45,0,2,2,0,0,1,.6,2c-.11,1.16-2.88,12.49-3.11,14.74-.17,1.77.27,3.8,1.73,3.8,2,0,3.28-2.51,3.39-2.91s1-.14,1.05,0a1.11,1.11,0,0,1-.27.87c-.24.19-1.55,3.89-4.74,3.89-3,0-4.84-1.14-5.29-4-.21-1.33-.42-1.51-.91-.53a7.16,7.16,0,0,1-6.58,4.52c-4.74,0-5.55-3.45-5.41-5.8C175.58,90.4,179.06,79.59,179.38,78.48Z"/><path class="cls-1" d="M121.14,146.42a2.51,2.51,0,0,1,3.58-1.93,1.63,1.63,0,0,1,.81,1.82c-.14,1.83-2.46,11.34-2.78,13.91-.3,2.37-.15,4.22,1.53,4.22,1.94,0,3.16-2,4.31-4.46,1.86-3.93,4.54-13.3,4.68-13.86a1.92,1.92,0,0,1,1-1.4,2.9,2.9,0,0,1,2.46,0,2,2,0,0,1,.59,2c-.1,1.16-2.88,12.49-3.1,14.74-.18,1.77.26,3.79,1.72,3.79,2,0,3.28-2.5,3.39-2.9s1-.14,1-.06a1.15,1.15,0,0,1-.26.88c-.25.19-1.56,3.89-4.75,3.89-2.74,0-4.87-1.27-5.29-4-.2-1.34-.42-1.52-.9-.53a7.18,7.18,0,0,1-6.59,4.52c-4.74,0-5.55-3.45-5.41-5.8C117.34,158.34,120.83,147.53,121.14,146.42Z"/><path class="cls-1" d="M167.53,76.84c-4.77,0-9.71,3.29-11.14,10.92-1.38,7.4,2.16,11.33,8.24,11.33s8.83-6.76,9.74-11.6S172.59,76.84,167.53,76.84Zm4.63,11c-.44,3.55-3.79,9.29-6.5,9.29-1.65,0-4.59-.94-4.19-9.14.41-8.63,6-10.34,8.31-9.55C172.51,79.34,172.61,84.26,172.16,87.81Z"/><path class="cls-1" d="M166.15,78.86c-1.56,4.93.62,10.11,5.79,10.11a8.42,8.42,0,0,0,6.77-3.24c.53-.73-.43-2-.64-1.58a6.47,6.47,0,0,1-5.38,3.14c-2.69.26-5.29-4.83-2.91-8.88.26-.58-.79-.8-2.06-.72S166.47,77.84,166.15,78.86Z"/><path class="cls-1" d="M87.77,144.69c-4.78,0-9.71,3.29-11.14,10.92-1.39,7.4,2.15,11.33,8.23,11.33s8.83-6.76,9.75-11.6S92.83,144.69,87.77,144.69Zm4.63,11C92,159.21,88.61,165,85.9,165c-1.66,0-4.59-.93-4.2-9.14.42-8.62,6-10.34,8.32-9.55C92.75,147.19,92.84,152.11,92.4,155.66Z"/><path class="cls-1" d="M86.38,146.71c-1.56,4.93.62,10.11,5.79,10.11A8.43,8.43,0,0,0,99,153.58c.52-.73-.44-2-.64-1.58a6.47,6.47,0,0,1-5.38,3.14c-2.69.26-5.29-4.83-2.91-8.88.25-.58-.8-.8-2.06-.72S86.71,145.69,86.38,146.71Z"/><path class="cls-1" d="M160.19,163.9c2-2.3,5.77-13.91,7.15-15.25s4.3-1.39,4.07,1.35c-.28,3.31-2.58,12.67-2.61,15.59a1.62,1.62,0,0,0,.48,1.35,3.6,3.6,0,0,0,2.95.11,1.8,1.8,0,0,0,.91-1.22c.49-1.55,2.54-13.07,3.24-15.48a4.39,4.39,0,0,1,4.56-2.77,3,3,0,0,1,2.2,3.59c-.24,1-2.72,11.67-2.61,14.4a1.38,1.38,0,0,0,.58,1.18,5.5,5.5,0,0,0,4.11.12c2.06-1,4.42-3.77,5.16-4.89s-.21-1.37-.3-1.22c-.93,1.47-3.32,4.09-4.31,4.18s-.51-2.64-.39-3.36c.51-3.23,2.49-9.82,2-12.63-.55-3.27-3.26-4.23-5.76-4.23a8.51,8.51,0,0,0-5.74,2.72c-.4.47-.77.45-1-.15a4.5,4.5,0,0,0-3.87-2.37,6.73,6.73,0,0,0-6.23,4.24c-1.4,3-3.79,9.84-6.16,14.07-.28.48.25.2.73.2S159.85,164.29,160.19,163.9Z"/><path class="cls-1" d="M200.32,167.8c3.66,0,6.36-.49,8.73-1.83.43-.29.73-.69.66-1-.13-.55-.9-.47-1.64-.08-1.64.85-3,1.35-6.82,1.35-4.32,0-6.2-2.54-6.07-7.25.16-6.11,5.2-25.85,5.45-27.1s.87-3.72,1.11-4.89a2,2,0,0,0-1.69-2,2.53,2.53,0,0,0-2.54.86c-.48.57-1.37,3.6-2,5.62-.91,3-4.89,22.54-5.47,26.85C189.4,163.14,192.86,167.8,200.32,167.8Z"/><path class="cls-1" d="M196.44,137.17a120.84,120.84,0,0,0,19.54.33c4.41-.45,7.86-2,8.61-3.88.49-1.05-1-1.64-2.81-1.64s-2.71.23-3.5,1.18-2.54,1.49-5.77,1.79a69.8,69.8,0,0,1-15.29-.6c-5.36-.89-11.3-1.75-15.26-1.48s-7.35,1.15-8.63,3.09c-1.45,2.21.11,2.77.87,2.77a5.11,5.11,0,0,0,3.43-1.64C180.44,133.84,193.43,136.82,196.44,137.17Z"/><path class="cls-1" d="M37.87,136.66c-.38,1.12-.3,2.17.5,2.26s1.62-.56,2-1.83c.37-1.11,2.4-9.43,1.23-14.44-1.83-7.82-9.59-9.27-18-6.3S2.64,130.54.26,155.9c-2.1,22.42,8.64,31.23,22.85,31.23s31.73-7.19,38.68-30.31c2.1-7,1.22-10.35-.14-11.49a4.4,4.4,0,0,0-5.55,0c-2.11,1.48-4.16,7.73,2.54,7.46s9.69-2.75,10.07-3c-1,3.16-2.86,10.55-2.86,12.6s.43,4.3,3.88,4.3,6.6-5,7.37-6.08c.34-.47.11-.54,0-.67a.27.27,0,0,0-.48.05c-.64,1.09-4.47,5.2-5.73,5.2s-.66-4.43,0-7.7c.71-3.54,2.93-9.55,2.39-10.25s-3-1.45-5.31.22c-2.49,1.82-4.94,3.69-8.52,3.71-2.9,0-3-1.31-2.91-2.37s.62-1.85.86-1.64c.72.59-.11,6.45-.33,7.72-1.54,8.72-12.21,29.42-33.5,29.42C5.83,184.33,6.58,165,6.86,156c.27-8.86,7-32.35,18.76-36.74,6.81-2.54,11.42-1.77,13.15,5.17C39.67,128,38.57,134.61,37.87,136.66Z"/><path class="cls-1" d="M94.13,135.77c1.28-.17,13.24-4,19.5-10.78s7.61-12.2,6.25-14.69-3.29-3.3-6.5-1.74c-2.8,1.37-9.17,7.89-10.53,19.54-1,8.88,2.62,11.35,6.55,11.35,4.2,0,11-4.36,13.27-7.11,2.07-2.47.85-2.3.85-2.3s-.37-2-.89-1.21c-1.55,2.26-8.56,7.83-11.87,7.83s-1.86-10.13-.57-14.25c1.4-4.46,4-10.77,5.9-12.6.8-.76,1.64.8,1.19,3.27-.56,3.07-3.53,10.61-9.67,14.57s-5.88,4.14-13.89,7.07c-.77.29-.79.37-.7.71S93.73,135.83,94.13,135.77Z"/><path class="cls-1" d="M128.76,125.4c2.18,1.15,4.93,1,7.51-2s2.31-4.54,1.46-4.89c-2.14-.86-9.14,2.31-9.33,10.78-.16,7.35,3.26,7.17,6.45,5.88a9.59,9.59,0,0,0,5-4c.76-1.16,1.43-.88,1.56-.54a2.34,2.34,0,0,1-.45,1.65c-.43.71-4.13,5.82-9.77,5.82-6.46,0-10.55-3.45-9.09-10.61,1.4-6.83,8.69-11,13.77-10.86,4.9.1,5.69,2.22,5,4.56a10,10,0,0,1-12.76,5.61C127.15,126.25,126.81,124.37,128.76,125.4Z"/><path class="cls-1" d="M164.43,50.7c-.65-.15-3.29-.73-5.75-1.32a23,23,0,0,1-5.56-2.5c-.38-.22-.28-.19-.12-.42a20.86,20.86,0,0,0,1.72-3c.69-1.49.78-5.47,1-7.63a50.07,50.07,0,0,1,1.39-6.8c.36-.88-.06-.79-.9-.54s-5.37,1.79-9.33,3c-3.61,1.09-10,.84-14.14.46a38.25,38.25,0,0,0-9.4.59c-.87.13-.34-.32,0-.54,1.37-1.61,4.31-2.55,9-2.39s11.6-.22,13.14-4.09c1.31-3.32,1-6.12-3.36-9.24s-9.31-.69-10.64-1.28c-3.28-1.31-14-11.16-14.7-11.93-1.4-1.49-4.95-5.27-6.42-1.21-.83,2.28.38,5.84,3.57,9.07,1,1,3,4.44,3.43,4.93,1.31,1.67,3.41,4.42,5.11,5.26.6.3.65.64-1.59,1.31-3,.9-18,7-20,19.32-2,12.65,11.34,16.74,18.39,16.78.29,0,.49.4.54.69a2.82,2.82,0,0,1-.79,2.58c-.55.44-.11.82.17.85a21.73,21.73,0,0,1,5.27.78,4.49,4.49,0,0,1,2.63,2.41.62.62,0,0,0,1,.25c.1-.15.61-.55,1.13-1.06s8.23-2.77,10.09-3.28,4.39-2,4.61-4.26-4-4.37-4.4-4.56-.52-.51-.29-.81A12.29,12.29,0,0,1,142.14,50a1.56,1.56,0,0,1,.75-.13,11.18,11.18,0,0,1,2.55,2.56c1.34,1.64,7.77,11.51,7.93,11.82a.88.88,0,0,0,1.58-.13,10.37,10.37,0,0,1,2.4-3.49,5.22,5.22,0,0,1,4.15-1.32c.48.05.95-.26.81-.78a15.19,15.19,0,0,1-.06-3.31c.08-1.31,2.24-3.56,2.42-3.72S165.07,50.85,164.43,50.7Zm-4.1,3.13a3.29,3.29,0,0,0-.57,1.74,10.53,10.53,0,0,0,.22,1.49c0,.29-.1.44-.48.4a2.45,2.45,0,0,0-2,.25A5.61,5.61,0,0,0,155,60.58c-.11.4-.36.48-.57,0-.51-1.06-3.25-4.08-5.77-6.88a45.64,45.64,0,0,0-5.19-5c-.37-.26-.57-.25-.72-.15a14.51,14.51,0,0,1-2.73,1.21c-.91.23-4.15,1-4.15,3s2.6,3.16,3,3.45.83,1.09-.47,1.57S132.9,59.63,132,60a26.75,26.75,0,0,0-3.84,1.85c-.51.31-.78.47-1.07.14a4.21,4.21,0,0,0-2.39-1.31,11.61,11.61,0,0,0-2.4-.23c-.27,0-.51.11-.52-.31a11,11,0,0,1,0-1.31c0-.23.28-.31.69-.33a28.14,28.14,0,0,0,4.73-.92c1-.26,3.09-1.25,4.4-1a8.52,8.52,0,0,1,3,1.36c.32.26.52.13.31-.27a8.29,8.29,0,0,0-3-2.8c-1.23-.5-7.14-.59-10.07-.59s-14.52-1-15.63-10.42c-1.13-9.61,7.58-18.32,18-21.53,1.34-.4.87-.74.25-1.33a23.09,23.09,0,0,1-4.41-5.57c-.16-.51.31-.34.74.1s7.33,5,7.8,5.2.16.44.34,1,.39.65.93.57,2.42-2.45,2.94-2.64.15-.46-.67-.31-.74.49-1.42.45-5.85-3.39-6.8-4.1S113.52,7.84,112.9,4.1a3.27,3.27,0,0,1-.06-1.41c.06-.4.08-.75.52-.16a88.17,88.17,0,0,0,11.37,9.34c4.12,2.59,6.74,3.94,8.7,4.42s9.36,1.24,9.36,6-8.72,5-10.63,4.91-8.54,2.38-10.68,5.43c-.55.74-.65,1,.12,1s5.11-.44,8.66.65,8.61,2.44,12.35,2.28,8.92-1.3,11-3.28c.5-.42.81-.46.69.19a46.13,46.13,0,0,1-2.24,7,39.38,39.38,0,0,1-2.57,4,.8.8,0,0,1-.9.15c-.38-.18-3.07-1.44-5-1.08a10.5,10.5,0,0,0-5.17,2.6c-.35.29-.09.46.32.27a11.5,11.5,0,0,1,4.63-.33c1.78.16,8.72,4.12,11.32,5.36A16.29,16.29,0,0,0,160,53.22C160.68,53.29,160.43,53.7,160.33,53.83Z"/><path class="cls-1" d="M119.65,41.67c.5-3.55-.35-3.55-1-3.54-.86,0-2.18,1.18-2.52,3.89-.29,2.35.77,7.55,7.17,8.11,5.29.47,15.45-7.69,15.94-8s.51-.76,0-.52-11.52,4.8-15.34,4.8S119.36,43.78,119.65,41.67Z"/><path class="cls-1" d="M139.35,22.81a4,4,0,0,0-.4-2.27,1.12,1.12,0,0,0-1.64-.48.85.85,0,0,0-.11,1.24c.22.29,1.29,1.37,1.66,1.84C139.07,23.4,139.29,23.33,139.35,22.81Z"/><path class="cls-1" d="M130.38,17.13c.33-.34-.59-1.07-1.21-1.14S129.81,17.7,130.38,17.13Z"/></g></g></svg>