<svg xmlns="http://www.w3.org/2000/svg" viewBox="0 0 294.77 193.61"><defs><style>.cls-1{fill:#20201e;}</style></defs><g id="Calque_2" data-name="Calque 2"><g id="Calque_11" data-name="Calque 11"><path d="M166.12,116.45c-2.52,1.89-4.8,3.51-7,5.26a71.81,71.81,0,0,1-21.23,11.41,16.91,16.91,0,0,1-7.06.94,8.91,8.91,0,0,1-8.07-6.29,7.23,7.23,0,0,1,1.19-5.69,21.53,21.53,0,0,1,6.64-6.89l1.55-1c-.26-5.88,3.21-9.59,7.38-12.8a44.61,44.61,0,0,1,4.89-2.86c0-5.06,3.26-8.08,7.26-10.47A31.18,31.18,0,0,1,157,86a3.69,3.69,0,0,0,1.87-1.43,13.23,13.23,0,0,1,3-3,33,33,0,0,1,11.26-4.82,11.33,11.33,0,0,1,2.86-.16c.57,0,1.1.21,1,1.12-6.16.72-11.82,2.75-16.44,7.42.55,0,1.11.06,1.66.14a46.65,46.65,0,0,1,5,.9,2.49,2.49,0,0,1-.07,4.92c-2.59.71-5.19.79-7.41-1a15.8,15.8,0,0,1-2.06-2.55C151.8,88.37,146.49,93,146,98l2.17-.31a13.34,13.34,0,0,1,6.09.2,2.85,2.85,0,0,1,2.26,2.38c.14,1.13-.62,2.11-2.05,2.76-2.4,1.11-6.83,1-9-1.91-.2-.28-.43-.52-.62-.74-4.7.94-11.95,8.13-11.13,13a6.73,6.73,0,0,0,1.29-.29c2.15-1,4.41-.86,6.66-.62,2,.21,3.2,1.18,3.42,2.46s-.73,2.52-2.49,3.4a7.83,7.83,0,0,1-8.74-1.48c-.33-.34-.64-.71-1.07-1.18a11.28,11.28,0,0,0-2.23,1.34,42.37,42.37,0,0,0-5,5.36c-2.82,3.93-1,8.43,3.67,9.8a10.53,10.53,0,0,0,5.26.09,51.28,51.28,0,0,0,16.59-6.89,96.34,96.34,0,0,0,24.4-20.85,141.8,141.8,0,0,0,12.4-17.62,34.74,34.74,0,0,0,3-7.6c.75-2.51-.91-4.76-3.5-5.3a10.11,10.11,0,0,0-5.44.58c-.51.18-1,.49-1.51.62-.27.07-.6-.13-.9-.21.1-.35.1-.8.32-1a3,3,0,0,1,1.07-.57,12.12,12.12,0,0,1,6.43-.89,5.66,5.66,0,0,1,5,6.9,28.19,28.19,0,0,1-4.82,11c-3.94,5.51-7.91,11-12.05,16.36a78.65,78.65,0,0,1-6.33,6.72,4,4,0,0,0-1.23,2.25c-.78,4.12-2.67,7.64-6.3,9.93-2.33,1.47-3.28,3.84-4.25,6.12-1.41,3.33-3.82,5.79-6.34,8.2-5,4.73-11,7.55-17.45,9.67a49.66,49.66,0,0,1-11.57,2.62,35.94,35.94,0,0,1-12.18-1.38,35,35,0,0,1-14.12-8.11,33.53,33.53,0,0,1-11.05-21.59c-1-7.92-.15-15.7,1.36-23.46.83-4.31,1.68-8.59,3.59-12.59,2.15-4.49,4.69-8.73,8.85-11.63a51.57,51.57,0,0,1,7-3.84c3.74-1.85,5.69-5,6.65-8.87a3.11,3.11,0,0,0-.93-3.11,49.36,49.36,0,0,1-10.38-16.35,9.4,9.4,0,0,1-.55-3.2,2.12,2.12,0,0,1,2.57-2.21c1.9.17,3,1.47,3.92,3,.09.14,0,.4,0,.59s-.18.19-.43.43c-1.53-.42-2.07-3-4.24-2.35a2.76,2.76,0,0,0,0,2.79,61.88,61.88,0,0,0,3,6.5A50.85,50.85,0,0,0,115.56,60a31.26,31.26,0,0,0,14,7.38c3.91.84,7-.78,8.27-4.58a38.31,38.31,0,0,0,1.68-7.17,68,68,0,0,0-.19-21.27c-.43-2.4-1.37-4.71-2-7.08a2.11,2.11,0,0,0-2.6-1.69c-2,.22-4,.24-5.9.61A76.38,76.38,0,0,0,111.52,32c-1.11.51-2.14,1.18-3.37,1.87-.85-1.34-1.66-2.64-2.54-4-4,3.56-8.3,3.11-12.69,1.24a5.62,5.62,0,0,1-3.09-2.89A21.38,21.38,0,0,1,88,22.78c-.63-4.88,2.54-9.79,7.65-11.89a38.72,38.72,0,0,1,6.52-1.67c1.34-.29,2.72-.36,4.07-.57a16.76,16.76,0,0,0,8.16-3.47C120.51.35,127.55-.95,135.13.64a11.89,11.89,0,0,1,7.54,5A9.32,9.32,0,0,1,144,14a13.46,13.46,0,0,1-4.51,6.48,1.51,1.51,0,0,1-.69.43,1.33,1.33,0,0,1-.87-.25c-.12-.09-.09-.54,0-.71a8.83,8.83,0,0,1,.86-.87,26.32,26.32,0,0,0,2.41-2.79,8.68,8.68,0,0,0-3.61-13.13,18.89,18.89,0,0,0-12-1.27,22.87,22.87,0,0,0-11.83,5.7c-1.68,1.57-4,1.94-6.27,2.35s-4.19.61-6.3.89c-4.25.58-7.82,2.32-10.35,5.95a8.4,8.4,0,0,0-1.1,7.62,9.06,9.06,0,0,0,13.64,5.26l1.34-.82c-.33-2,.89-3.16,2.54-3.86a88.35,88.35,0,0,1,10.49-4.11c4.07-1.15,8.3-1.69,12.46-2.48a7,7,0,0,1,1-.1c3.41-.2,5.69,1.65,6.33,5a13.33,13.33,0,0,0,.81,2.7,42.81,42.81,0,0,1,3.07,13.54,75.19,75.19,0,0,1-.95,19c-.2,1.14-.52,2.26-.81,3.39A4.71,4.71,0,0,0,142,67.7a14.79,14.79,0,0,0,4.2,1.53c1.93.41,3.92.57,5.89.81a13,13,0,0,1,5.76,2,8.9,8.9,0,0,1,3.51,5.14c.09.29-.2.69-.32,1a3.48,3.48,0,0,1-1-.5,2.3,2.3,0,0,1-.43-.92c-1.08-3.17-3.6-4.53-6.64-5.1-2.15-.41-4.34-.58-6.51-.89-3.45-.5-6.53-1.61-8.16-5.19-1.72,1.87-3.62,3.44-6.18,3.35a20.12,20.12,0,0,1-5.82-1,34.41,34.41,0,0,1-11.47-6.65l-.91-.75c-.19.54-.34,1-.48,1.4-1.26,3.91-3.33,7.16-7.21,9-1.67.78-3.32,1.63-4.93,2.52-4.86,2.67-7.7,7.06-10.06,11.86A46.69,46.69,0,0,0,87.58,97.7a85.68,85.68,0,0,0-1.8,15.06,46.9,46.9,0,0,0,1.91,14.78,32.49,32.49,0,0,0,13.15,17.22,35.65,35.65,0,0,0,16.17,6,28.55,28.55,0,0,0,10.58-.86,68,68,0,0,0,13.86-5,35.8,35.8,0,0,0,12.35-10,23.54,23.54,0,0,0,2.8-5,13.72,13.72,0,0,1,5-6.05,11.17,11.17,0,0,0,4.31-6.09A12.78,12.78,0,0,0,166.12,116.45ZM136,23.9c-.5-3.12-1.68-4.16-4.45-4.09-.55,0-1.1,0-1.64.09a66.93,66.93,0,0,0-20.43,5.64A23.28,23.28,0,0,0,107,26.93a1.08,1.08,0,0,0-.36,1.73c.7,1,1.38,2,2.05,3C117.38,27.57,126.19,24.18,136,23.9ZM134.65,115c2,3.37,7.1,3.5,9,.23C142.06,113.38,138.07,113.28,134.65,115Zm25-27.92a3,3,0,0,0,2.63,2.63c1.92.37,3.89.71,5.49-.95C166.45,86.86,162.85,86.17,159.68,87.08ZM146.53,99.71a6.3,6.3,0,0,0,.63,1,6.08,6.08,0,0,0,6.65,1c.47-.23.78-.81,1.16-1.23-.43-.39-.8-1-1.3-1.12A12.26,12.26,0,0,0,146.53,99.71Z"/><path d="M118.68,125.84c-.67-.61-1.12-.83-1.22-1.16a8,8,0,0,1-.27-2c-.29-5.4-.39-10.8-.87-16.18-.44-5-1.23-10-1.95-15-.28-1.94-.77-3.86-1.19-5.91a3.32,3.32,0,0,1,2.6-.6,99.24,99.24,0,0,0,21.42-1.78c1.34-.28,2.65-.68,4-1,.51-.14,1.13-.46,1.39.28s-.35,1-.89,1.11c-2.39.57-4.77,1.2-7.18,1.63a96.24,96.24,0,0,1-17.78,1.27c-.47,0-.94,0-1.59,0,.68,4.44,1.46,8.7,2,13s.85,8.57,1,12.87S118.9,121,118.68,125.84Z"/><path d="M187,93.81a9.83,9.83,0,0,1,5.14-1.76,2.09,2.09,0,0,1,2.22,1.72,3.78,3.78,0,0,1,.18,1.41c-.68,5.88-5.54,10.53-12.29,9.06-.61-.13-1.57-.26-1.28-1.21.25-.79,1-.34,1.6-.3a15.06,15.06,0,0,0,3.61,0,8.69,8.69,0,0,0,6.83-7c.34-1.94-.38-2.62-2.23-2.08-.78.23-1.54.56-2.3.86C187.87,94.82,187.39,94.82,187,93.81Z"/><path d="M122.78,93.05c1.1,0,1.82.64,1.8,1.35a1.16,1.16,0,0,1-1.09,1.22,1.24,1.24,0,0,1-1.37-1.35A3.61,3.61,0,0,1,122.78,93.05Z"/><path class="cls-1" d="M14.58,191a1.14,1.14,0,0,1,.79.32,1,1,0,0,1,.34.78,1.07,1.07,0,0,1-.34.81,1.14,1.14,0,0,1-.79.32H1.13a1.08,1.08,0,0,1-.81-.34,1.14,1.14,0,0,1-.32-.79V168a1.06,1.06,0,0,1,.34-.79,1.15,1.15,0,0,1,.87-.34,1.14,1.14,0,0,1,.81.34,1.07,1.07,0,0,1,.35.79v23.65L1.66,191Z"/><path class="cls-1" d="M35.11,174a1,1,0,0,1,.81.34,1.16,1.16,0,0,1,.32.82v17a1.08,1.08,0,0,1-.34.79,1.12,1.12,0,0,1-.79.34,1.08,1.08,0,0,1-.83-.34,1.16,1.16,0,0,1-.3-.79v-4.49l.64-.3a4.63,4.63,0,0,1-.58,2.15,7.62,7.62,0,0,1-1.61,2A8,8,0,0,1,30,193a7.52,7.52,0,0,1-3,.58,8.17,8.17,0,0,1-4.54-1.31,9.09,9.09,0,0,1-3.17-3.62,11.44,11.44,0,0,1-1.14-5.16,11,11,0,0,1,1.16-5.18,9,9,0,0,1,3.17-3.52,8.24,8.24,0,0,1,10,.82,7.42,7.42,0,0,1,1.66,2.25,6,6,0,0,1,.6,2.61l-.79-.56v-4.79a1.18,1.18,0,0,1,.3-.82A1,1,0,0,1,35.11,174ZM27.27,191.5a6.19,6.19,0,0,0,3.54-1,7.17,7.17,0,0,0,2.44-2.87,9.36,9.36,0,0,0,.88-4.08,9,9,0,0,0-.88-4,7.37,7.37,0,0,0-2.44-2.82,6.13,6.13,0,0,0-3.54-1.06,6.31,6.31,0,0,0-3.52,1,7,7,0,0,0-2.45,2.79,9,9,0,0,0-.88,4.07,9.49,9.49,0,0,0,.86,4.08,6.92,6.92,0,0,0,2.43,2.87A6.32,6.32,0,0,0,27.27,191.5Z"/><path class="cls-1" d="M54.13,166.87a1.38,1.38,0,0,1,.55.11,1,1,0,0,1,.47.38L65.55,183l-1,0L75,167.36a1.05,1.05,0,0,1,1-.49,1,1,0,0,1,.77.32,1.07,1.07,0,0,1,.33.81v24.11a1.12,1.12,0,0,1-.34.79,1.17,1.17,0,0,1-.83.34,1.2,1.2,0,0,1-.87-.34,1.08,1.08,0,0,1-.34-.79V170.3l.68.07L65.85,184.8a.9.9,0,0,1-.34.36,1.55,1.55,0,0,1-1,0,1.12,1.12,0,0,1-.39-.36l-9.57-14.58.72-.49v22.38a1.14,1.14,0,0,1-.32.79,1.11,1.11,0,0,1-.81.34,1,1,0,0,1-.8-.34,1.16,1.16,0,0,1-.3-.79V168a1.12,1.12,0,0,1,.32-.79A1.07,1.07,0,0,1,54.13,166.87Z"/><path class="cls-1" d="M99.23,174a1.07,1.07,0,0,1,.81.34,1.16,1.16,0,0,1,.32.82v17a1.16,1.16,0,0,1-1.13,1.13,1.06,1.06,0,0,1-.83-.34,1.16,1.16,0,0,1-.3-.79v-4.49l.64-.3a4.53,4.53,0,0,1-.59,2.15,7.58,7.58,0,0,1-1.6,2A8.16,8.16,0,0,1,94.16,193a7.6,7.6,0,0,1-3,.58,8.2,8.2,0,0,1-4.54-1.31,9.14,9.14,0,0,1-3.16-3.62,11.31,11.31,0,0,1-1.15-5.16,11,11,0,0,1,1.17-5.18,9,9,0,0,1,3.16-3.52,8.1,8.1,0,0,1,4.49-1.29,8,8,0,0,1,3,.57,8.11,8.11,0,0,1,2.47,1.54,7.39,7.39,0,0,1,1.65,2.25,5.88,5.88,0,0,1,.61,2.61l-.79-.56v-4.79a1.18,1.18,0,0,1,.3-.82A1,1,0,0,1,99.23,174ZM91.39,191.5a6.21,6.21,0,0,0,3.54-1,7.07,7.07,0,0,0,2.43-2.87,9.22,9.22,0,0,0,.89-4.08,8.87,8.87,0,0,0-.89-4,7.26,7.26,0,0,0-2.43-2.82,6.16,6.16,0,0,0-3.54-1.06,6.28,6.28,0,0,0-3.52,1,7,7,0,0,0-2.45,2.79,9,9,0,0,0-.89,4.07,9.35,9.35,0,0,0,.87,4.08,6.92,6.92,0,0,0,2.43,2.87A6.3,6.3,0,0,0,91.39,191.5Z"/><path class="cls-1" d="M107.32,171.12a1.7,1.7,0,0,1-1.18-.35,1.32,1.32,0,0,1-.4-1v-.38a1.26,1.26,0,0,1,.44-1,1.77,1.77,0,0,1,1.18-.36,1.58,1.58,0,0,1,1.11.36,1.3,1.3,0,0,1,.4,1v.38a1.32,1.32,0,0,1-.4,1A1.63,1.63,0,0,1,107.32,171.12Zm1.14,21a1.14,1.14,0,0,1-1.95.79,1.14,1.14,0,0,1-.32-.79V174.78a1.12,1.12,0,0,1,.32-.79,1.07,1.07,0,0,1,.81-.34,1,1,0,0,1,.81.34,1.09,1.09,0,0,1,.33.79Z"/><path class="cls-1" d="M123.41,173.53a7,7,0,0,1,4,1,5.57,5.57,0,0,1,2.15,2.72,10.42,10.42,0,0,1,.66,3.78v11.08a1.08,1.08,0,0,1-.34.79,1.12,1.12,0,0,1-.79.34,1.08,1.08,0,0,1-.83-.34,1.16,1.16,0,0,1-.3-.79v-11a7.39,7.39,0,0,0-.49-2.75,4.28,4.28,0,0,0-1.6-2,5.14,5.14,0,0,0-2.92-.76,6.85,6.85,0,0,0-5.42,2.75,4.54,4.54,0,0,0-.91,2.75v11a1.08,1.08,0,0,1-.34.79,1.1,1.1,0,0,1-.79.34,1.08,1.08,0,0,1-.83-.34,1.16,1.16,0,0,1-.3-.79V175.23a1.14,1.14,0,0,1,.32-.79,1.13,1.13,0,0,1,1.62,0,1.14,1.14,0,0,1,.32.79v3.16l-.87,1.36a4.86,4.86,0,0,1,.78-2.32,8,8,0,0,1,1.79-2,8.61,8.61,0,0,1,2.43-1.4A7.5,7.5,0,0,1,123.41,173.53Z"/><path class="cls-1" d="M162,174a1,1,0,0,1,.81.34,1.16,1.16,0,0,1,.32.82v17a1.08,1.08,0,0,1-.34.79,1.1,1.1,0,0,1-.79.34,1.08,1.08,0,0,1-.83-.34,1.16,1.16,0,0,1-.3-.79v-4.49l.64-.3a4.51,4.51,0,0,1-.58,2.15,7.58,7.58,0,0,1-1.6,2A8.29,8.29,0,0,1,157,193a7.6,7.6,0,0,1-3,.58,8.17,8.17,0,0,1-4.54-1.31,9.06,9.06,0,0,1-3.16-3.62,11.31,11.31,0,0,1-1.15-5.16,11,11,0,0,1,1.17-5.18,8.92,8.92,0,0,1,3.16-3.52,8.41,8.41,0,0,1,7.52-.72,8,8,0,0,1,2.46,1.54,7.26,7.26,0,0,1,1.66,2.25,6,6,0,0,1,.6,2.61l-.79-.56v-4.79a1.18,1.18,0,0,1,.3-.82A1,1,0,0,1,162,174Zm-7.83,17.51a6.21,6.21,0,0,0,3.54-1,7.07,7.07,0,0,0,2.43-2.87,9.22,9.22,0,0,0,.88-4.08,8.87,8.87,0,0,0-.88-4,7.26,7.26,0,0,0-2.43-2.82,6.16,6.16,0,0,0-3.54-1.06,6.34,6.34,0,0,0-3.53,1,7,7,0,0,0-2.44,2.79,8.87,8.87,0,0,0-.89,4.07,9.35,9.35,0,0,0,.87,4.08,6.78,6.78,0,0,0,2.43,2.87A6.27,6.27,0,0,0,154.19,191.5Zm.26-19.32a1,1,0,0,1-.51-.15,4,4,0,0,1-.43-.3l-3-2.75a1.73,1.73,0,0,1-.37-.44A.93.93,0,0,1,150,168a1,1,0,0,1,.34-.81,1.2,1.2,0,0,1,.79-.29,1.22,1.22,0,0,1,.72.21,1.58,1.58,0,0,1,.45.44l2.56,3.35a.94.94,0,0,1,.31.6.64.64,0,0,1-.21.47A.69.69,0,0,1,154.45,172.18Z"/><path class="cls-1" d="M181.84,192.11a1.16,1.16,0,0,1-1.13,1.13,1.08,1.08,0,0,1-.81-.34,1.09,1.09,0,0,1-.32-.79V166.49a1.16,1.16,0,0,1,1.13-1.13,1.07,1.07,0,0,1,.81.34,1.12,1.12,0,0,1,.32.79Z"/><path class="cls-1" d="M203.65,174a1.06,1.06,0,0,1,.81.34,1.16,1.16,0,0,1,.32.82v17a1.08,1.08,0,0,1-.34.79,1.12,1.12,0,0,1-.79.34,1.08,1.08,0,0,1-.83-.34,1.16,1.16,0,0,1-.3-.79v-4.49l.64-.3a4.63,4.63,0,0,1-.58,2.15,7.62,7.62,0,0,1-1.61,2,8,8,0,0,1-2.39,1.53,7.52,7.52,0,0,1-3,.58,8.15,8.15,0,0,1-4.54-1.31,9.09,9.09,0,0,1-3.17-3.62,11.44,11.44,0,0,1-1.15-5.16,11,11,0,0,1,1.17-5.18,9,9,0,0,1,3.17-3.52,8.24,8.24,0,0,1,10,.82,7.59,7.59,0,0,1,1.66,2.25,6,6,0,0,1,.6,2.61l-.79-.56v-4.79a1.18,1.18,0,0,1,.3-.82A1,1,0,0,1,203.65,174Zm-7.84,17.51a6.21,6.21,0,0,0,3.54-1,7.07,7.07,0,0,0,2.43-2.87,9.22,9.22,0,0,0,.89-4.08,8.87,8.87,0,0,0-.89-4,7.26,7.26,0,0,0-2.43-2.82,6.16,6.16,0,0,0-3.54-1.06,6.31,6.31,0,0,0-3.52,1,7,7,0,0,0-2.45,2.79,9,9,0,0,0-.88,4.07,9.49,9.49,0,0,0,.86,4.08,6.92,6.92,0,0,0,2.43,2.87A6.3,6.3,0,0,0,195.81,191.5Z"/><path class="cls-1" d="M231.6,166.87a7.17,7.17,0,0,1,3.73,1,6.94,6.94,0,0,1,2.56,2.65,7.85,7.85,0,0,1,.94,3.88,8.16,8.16,0,0,1-.94,3.94,7.28,7.28,0,0,1-2.56,2.77,6.84,6.84,0,0,1-3.73,1h-8l.19-.38v10.4a1.08,1.08,0,0,1-.34.79,1.1,1.1,0,0,1-.79.34,1.08,1.08,0,0,1-.83-.34,1.16,1.16,0,0,1-.3-.79V168a1.06,1.06,0,0,1,.34-.79,1.08,1.08,0,0,1,.79-.34Zm0,13a4.47,4.47,0,0,0,2.56-.73,5.09,5.09,0,0,0,1.72-2,6.33,6.33,0,0,0,.62-2.81,5.84,5.84,0,0,0-.62-2.73,4.65,4.65,0,0,0-4.28-2.54h-8l.19-.34v11.38l-.22-.23Z"/><path class="cls-1" d="M258.87,174a1,1,0,0,1,.81.34,1.12,1.12,0,0,1,.32.82v17a1.11,1.11,0,0,1-.33.79,1.12,1.12,0,0,1-.8.34,1.09,1.09,0,0,1-.83-.34,1.16,1.16,0,0,1-.3-.79v-4.49l.64-.3a4.51,4.51,0,0,1-.58,2.15,7.58,7.58,0,0,1-1.6,2,8.29,8.29,0,0,1-2.39,1.53,7.6,7.6,0,0,1-3,.58,8.2,8.2,0,0,1-4.54-1.31,9.06,9.06,0,0,1-3.16-3.62,11.31,11.31,0,0,1-1.15-5.16,11,11,0,0,1,1.17-5.18,9,9,0,0,1,3.16-3.52,8.41,8.41,0,0,1,7.52-.72,8,8,0,0,1,2.46,1.54,7.26,7.26,0,0,1,1.66,2.25,6,6,0,0,1,.61,2.61l-.8-.56v-4.79a1.18,1.18,0,0,1,.3-.82A1.06,1.06,0,0,1,258.87,174ZM251,191.5a6.21,6.21,0,0,0,3.54-1A7.07,7.07,0,0,0,257,187.6a9.22,9.22,0,0,0,.88-4.08,8.87,8.87,0,0,0-.88-4,7.26,7.26,0,0,0-2.43-2.82,6.16,6.16,0,0,0-3.54-1.06,6.28,6.28,0,0,0-3.52,1,6.93,6.93,0,0,0-2.45,2.79,9,9,0,0,0-.89,4.07,9.35,9.35,0,0,0,.87,4.08,6.92,6.92,0,0,0,2.43,2.87A6.3,6.3,0,0,0,251,191.5Zm.64-23.2-3.28,2.75a4.15,4.15,0,0,1-.47.37.8.8,0,0,1-.51.16.65.65,0,0,1-.45-.19.58.58,0,0,1-.19-.42.8.8,0,0,1,.06-.3.79.79,0,0,1,.24-.3l2.75-3a1.38,1.38,0,0,1,1.25-.64h.6a1.62,1.62,0,0,1,.7.13,1.29,1.29,0,0,1,.5.51l2.72,3a1.23,1.23,0,0,1,.2.32.79.79,0,0,1,.06.32.59.59,0,0,1-.17.38.54.54,0,0,1-.43.19.94.94,0,0,1-.53-.15,6,6,0,0,1-.49-.38l-3.35-2.67Z"/><path class="cls-1" d="M264.67,174.06h8.78a1,1,0,0,1,.76.32,1.1,1.1,0,0,1,.3.77,1,1,0,0,1-.3.72,1.06,1.06,0,0,1-.76.3h-8.78a1.07,1.07,0,0,1-.77-.32,1,1,0,0,1,0-1.49A1.1,1.1,0,0,1,264.67,174.06Zm3.89-5.31a1.07,1.07,0,0,1,.81.34,1.14,1.14,0,0,1,.32.79v18.91a3.41,3.41,0,0,0,.28,1.58,1.37,1.37,0,0,0,.73.7,2.66,2.66,0,0,0,.91.17,1.53,1.53,0,0,0,.54-.09,1.42,1.42,0,0,1,.55-.1.76.76,0,0,1,.58.27.91.91,0,0,1,.25.67,1,1,0,0,1-.61.89,2.71,2.71,0,0,1-1.43.36c-.22,0-.56,0-1-.06a3.84,3.84,0,0,1-1.4-.41,2.77,2.77,0,0,1-1.18-1.27,5.65,5.65,0,0,1-.48-2.6v-19a1.11,1.11,0,0,1,.33-.79A1,1,0,0,1,268.56,168.75Z"/><path class="cls-1" d="M287.05,193.61a10.3,10.3,0,0,1-5.12-1.24,8.84,8.84,0,0,1-3.47-3.47,10.43,10.43,0,0,1-1.24-5.19,11.09,11.09,0,0,1,1.26-5.47,9.33,9.33,0,0,1,3.28-3.48,8.07,8.07,0,0,1,4.28-1.23,9.17,9.17,0,0,1,3.22.59,8.1,8.1,0,0,1,2.76,1.73,8.8,8.8,0,0,1,2,2.81,9.36,9.36,0,0,1,.79,3.84,1,1,0,0,1-.33.77,1.1,1.1,0,0,1-.8.32h-15.1l-.45-2h14.84l-.49.45v-.75a5.83,5.83,0,0,0-1.17-3,6.55,6.55,0,0,0-2.35-1.88,6.72,6.72,0,0,0-2.88-.64,6.5,6.5,0,0,0-2.32.45,6.08,6.08,0,0,0-2.15,1.41A7.26,7.26,0,0,0,280,180a9.43,9.43,0,0,0-.6,3.52,9,9,0,0,0,.9,4,7,7,0,0,0,2.6,2.86,7.64,7.64,0,0,0,4.1,1.05,6.69,6.69,0,0,0,4.2-1.37,7.57,7.57,0,0,0,1.34-1.3,1.26,1.26,0,0,1,.79-.34.92.92,0,0,1,.7.3,1,1,0,0,1,.28.68,1,1,0,0,1-.37.79,10.31,10.31,0,0,1-2.94,2.36A8.14,8.14,0,0,1,287.05,193.61Z"/></g></g></svg>