<svg xmlns="http://www.w3.org/2000/svg" viewBox="0 0 238.02 152.13"><defs><style>.cls-1{fill:#20201e;}</style></defs><g id="Calque_2" data-name="Calque 2"><g id="Calque_11" data-name="Calque 11"><path class="cls-1" d="M2.5,98.5A2.5,2.5,0,0,1,0,96V56.08a2.5,2.5,0,0,1,5,0V96A2.5,2.5,0,0,1,2.5,98.5Z"/><path class="cls-1" d="M223.12,99.15c-8.49,0-14.9-7.51-14.9-17.47,0-8.88,6.69-16.1,14.9-16.1,7.17,0,14.9,6.16,14.9,16.1a2.5,2.5,0,0,1-2.5,2.5H213.4c.87,5.83,4.76,10,9.72,10,3.8,0,6.71-1.41,9.46-4.58a2.5,2.5,0,0,1,3.78,3.28A16.78,16.78,0,0,1,223.12,99.15Zm-9.65-20h19.25c-1-4.17-4.24-8.6-9.6-8.6C218.43,70.58,214.49,74.26,213.47,79.18Z"/><path class="cls-1" d="M219.4,60.75a2.5,2.5,0,0,1-.84-4.86l6.55-2.31a2.5,2.5,0,1,1,1.66,4.71l-6.54,2.32A2.73,2.73,0,0,1,219.4,60.75Z"/><path class="cls-1" d="M29.07,99.15c-8.5,0-14.9-7.51-14.9-17.47,0-8.88,6.68-16.1,14.9-16.1,7.16,0,14.9,6.16,14.9,16.1a2.5,2.5,0,0,1-2.5,2.5H19.35c.87,5.83,4.76,10,9.72,10,3.79,0,6.71-1.41,9.45-4.58a2.5,2.5,0,0,1,3.78,3.28A16.77,16.77,0,0,1,29.07,99.15Zm-9.65-20H38.67c-1-4.17-4.25-8.6-9.6-8.6C24.37,70.58,20.43,74.26,19.42,79.18Z"/><path class="cls-1" d="M197.76,99.15a2.5,2.5,0,0,1-2.5-2.5V55.36a2.5,2.5,0,0,1,5,0V96.65A2.5,2.5,0,0,1,197.76,99.15Z"/><path class="cls-1" d="M182.63,99.15a2.5,2.5,0,0,1-2.5-2.5V55.36a2.5,2.5,0,0,1,5,0V96.65A2.5,2.5,0,0,1,182.63,99.15Z"/><path class="cls-1" d="M166,58.79a2.5,2.5,0,0,1-2.5-2.5v-.54a2.5,2.5,0,0,1,5,0v.54A2.5,2.5,0,0,1,166,58.79Z"/><path class="cls-1" d="M166,99.15a2.5,2.5,0,0,1-2.5-2.5v-28a2.5,2.5,0,0,1,5,0v28A2.5,2.5,0,0,1,166,99.15Z"/><path class="cls-1" d="M140.43,99.15c-7.4,0-13-6.68-13-15.54v-15a2.5,2.5,0,1,1,5,0v15c0,5.24,2.74,10.54,8,10.54,5.89,0,8-5.45,8-10.54v-15a2.5,2.5,0,0,1,5,0v15C153.42,92.9,148.2,99.15,140.43,99.15Z"/><path class="cls-1" d="M216.85,45.54a2.49,2.49,0,0,1-2.23-1.38A71.09,71.09,0,0,0,102.68,24a2.5,2.5,0,0,1-3.41-3.66A76.09,76.09,0,0,1,219.08,41.91a2.51,2.51,0,0,1-2.23,3.63Z"/><path class="cls-1" d="M151.1,152.13c-28.58,0-54.73-14.74-65.08-36.68-.33-.7-.65-1.41-1-2.11a35.43,35.43,0,0,1-15.6.51c-7.69-1.56-14.61-7.84-13-16.83a11.9,11.9,0,0,1,14.05-9.84c9.21,1.5,13.13,10.5,17.28,20l0,0a41.41,41.41,0,0,0,11.66-6.76c8.84-7.22,13.91-17.09,13.91-27.07,0-24.28-18.49-38.79-36.37-38.79a37.47,37.47,0,0,0-32.27,18,2.5,2.5,0,0,1-4.27-2.6A42.42,42.42,0,0,1,77,29.63a41,41,0,0,1,28.66,12.11A44.31,44.31,0,0,1,118.4,73.42c0,11.49-5.74,22.77-15.74,31a46.79,46.79,0,0,1-12.81,7.46c.23.49.46,1,.7,1.49,9.53,20.22,33.87,33.81,60.55,33.81a70.62,70.62,0,0,0,63.92-40,2.5,2.5,0,0,1,4.5,2.19A75.59,75.59,0,0,1,151.1,152.13ZM68.25,92a6.83,6.83,0,0,0-6.85,5.92c-.81,4.41,1.68,9.53,9,11A30.35,30.35,0,0,0,83,108.7c-3.8-8.72-6.89-15.55-13.28-16.58A9.62,9.62,0,0,0,68.25,92Z"/></g></g></svg>